%TF.GenerationSoftware,KiCad,Pcbnew,7.0.8*%
%TF.CreationDate,2023-11-07T16:54:38-08:00*%
%TF.ProjectId,trill-flex-slider,7472696c-6c2d-4666-9c65-782d736c6964,C1*%
%TF.SameCoordinates,Original*%
%TF.FileFunction,Copper,L2,Bot*%
%TF.FilePolarity,Positive*%
%FSLAX46Y46*%
G04 Gerber Fmt 4.6, Leading zero omitted, Abs format (unit mm)*
G04 Created by KiCad (PCBNEW 7.0.8) date 2023-11-07 16:54:38*
%MOMM*%
%LPD*%
G01*
G04 APERTURE LIST*
G04 Aperture macros list*
%AMRoundRect*
0 Rectangle with rounded corners*
0 $1 Rounding radius*
0 $2 $3 $4 $5 $6 $7 $8 $9 X,Y pos of 4 corners*
0 Add a 4 corners polygon primitive as box body*
4,1,4,$2,$3,$4,$5,$6,$7,$8,$9,$2,$3,0*
0 Add four circle primitives for the rounded corners*
1,1,$1+$1,$2,$3*
1,1,$1+$1,$4,$5*
1,1,$1+$1,$6,$7*
1,1,$1+$1,$8,$9*
0 Add four rect primitives between the rounded corners*
20,1,$1+$1,$2,$3,$4,$5,0*
20,1,$1+$1,$4,$5,$6,$7,0*
20,1,$1+$1,$6,$7,$8,$9,0*
20,1,$1+$1,$8,$9,$2,$3,0*%
G04 Aperture macros list end*
%ADD10C,0.100000*%
%TA.AperFunction,NonConductor*%
%ADD11C,0.100000*%
%TD*%
%TA.AperFunction,SMDPad,CuDef*%
%ADD12RoundRect,0.500000X12.200000X0.000000X-12.200000X0.000000X-12.200000X0.000000X12.200000X0.000000X0*%
%TD*%
%TA.AperFunction,SMDPad,CuDef*%
%ADD13C,1.524000*%
%TD*%
%TA.AperFunction,ViaPad*%
%ADD14C,0.800000*%
%TD*%
%TA.AperFunction,Conductor*%
%ADD15C,0.250000*%
%TD*%
G04 APERTURE END LIST*
D10*
D11*
X146668534Y-89281657D02*
X146620915Y-89234038D01*
X146620915Y-89234038D02*
X146525677Y-89186419D01*
X146525677Y-89186419D02*
X146287582Y-89186419D01*
X146287582Y-89186419D02*
X146192344Y-89234038D01*
X146192344Y-89234038D02*
X146144725Y-89281657D01*
X146144725Y-89281657D02*
X146097106Y-89376895D01*
X146097106Y-89376895D02*
X146097106Y-89472133D01*
X146097106Y-89472133D02*
X146144725Y-89614990D01*
X146144725Y-89614990D02*
X146716153Y-90186419D01*
X146716153Y-90186419D02*
X146097106Y-90186419D01*
X145763772Y-89186419D02*
X145097106Y-89186419D01*
X145097106Y-89186419D02*
X145525677Y-90186419D01*
D10*
D11*
X142731534Y-89154657D02*
X142683915Y-89107038D01*
X142683915Y-89107038D02*
X142588677Y-89059419D01*
X142588677Y-89059419D02*
X142350582Y-89059419D01*
X142350582Y-89059419D02*
X142255344Y-89107038D01*
X142255344Y-89107038D02*
X142207725Y-89154657D01*
X142207725Y-89154657D02*
X142160106Y-89249895D01*
X142160106Y-89249895D02*
X142160106Y-89345133D01*
X142160106Y-89345133D02*
X142207725Y-89487990D01*
X142207725Y-89487990D02*
X142779153Y-90059419D01*
X142779153Y-90059419D02*
X142160106Y-90059419D01*
X141302963Y-89059419D02*
X141493439Y-89059419D01*
X141493439Y-89059419D02*
X141588677Y-89107038D01*
X141588677Y-89107038D02*
X141636296Y-89154657D01*
X141636296Y-89154657D02*
X141731534Y-89297514D01*
X141731534Y-89297514D02*
X141779153Y-89487990D01*
X141779153Y-89487990D02*
X141779153Y-89868942D01*
X141779153Y-89868942D02*
X141731534Y-89964180D01*
X141731534Y-89964180D02*
X141683915Y-90011800D01*
X141683915Y-90011800D02*
X141588677Y-90059419D01*
X141588677Y-90059419D02*
X141398201Y-90059419D01*
X141398201Y-90059419D02*
X141302963Y-90011800D01*
X141302963Y-90011800D02*
X141255344Y-89964180D01*
X141255344Y-89964180D02*
X141207725Y-89868942D01*
X141207725Y-89868942D02*
X141207725Y-89630847D01*
X141207725Y-89630847D02*
X141255344Y-89535609D01*
X141255344Y-89535609D02*
X141302963Y-89487990D01*
X141302963Y-89487990D02*
X141398201Y-89440371D01*
X141398201Y-89440371D02*
X141588677Y-89440371D01*
X141588677Y-89440371D02*
X141683915Y-89487990D01*
X141683915Y-89487990D02*
X141731534Y-89535609D01*
X141731534Y-89535609D02*
X141779153Y-89630847D01*
D10*
D11*
X150605534Y-89154657D02*
X150557915Y-89107038D01*
X150557915Y-89107038D02*
X150462677Y-89059419D01*
X150462677Y-89059419D02*
X150224582Y-89059419D01*
X150224582Y-89059419D02*
X150129344Y-89107038D01*
X150129344Y-89107038D02*
X150081725Y-89154657D01*
X150081725Y-89154657D02*
X150034106Y-89249895D01*
X150034106Y-89249895D02*
X150034106Y-89345133D01*
X150034106Y-89345133D02*
X150081725Y-89487990D01*
X150081725Y-89487990D02*
X150653153Y-90059419D01*
X150653153Y-90059419D02*
X150034106Y-90059419D01*
X149462677Y-89487990D02*
X149557915Y-89440371D01*
X149557915Y-89440371D02*
X149605534Y-89392752D01*
X149605534Y-89392752D02*
X149653153Y-89297514D01*
X149653153Y-89297514D02*
X149653153Y-89249895D01*
X149653153Y-89249895D02*
X149605534Y-89154657D01*
X149605534Y-89154657D02*
X149557915Y-89107038D01*
X149557915Y-89107038D02*
X149462677Y-89059419D01*
X149462677Y-89059419D02*
X149272201Y-89059419D01*
X149272201Y-89059419D02*
X149176963Y-89107038D01*
X149176963Y-89107038D02*
X149129344Y-89154657D01*
X149129344Y-89154657D02*
X149081725Y-89249895D01*
X149081725Y-89249895D02*
X149081725Y-89297514D01*
X149081725Y-89297514D02*
X149129344Y-89392752D01*
X149129344Y-89392752D02*
X149176963Y-89440371D01*
X149176963Y-89440371D02*
X149272201Y-89487990D01*
X149272201Y-89487990D02*
X149462677Y-89487990D01*
X149462677Y-89487990D02*
X149557915Y-89535609D01*
X149557915Y-89535609D02*
X149605534Y-89583228D01*
X149605534Y-89583228D02*
X149653153Y-89678466D01*
X149653153Y-89678466D02*
X149653153Y-89868942D01*
X149653153Y-89868942D02*
X149605534Y-89964180D01*
X149605534Y-89964180D02*
X149557915Y-90011800D01*
X149557915Y-90011800D02*
X149462677Y-90059419D01*
X149462677Y-90059419D02*
X149272201Y-90059419D01*
X149272201Y-90059419D02*
X149176963Y-90011800D01*
X149176963Y-90011800D02*
X149129344Y-89964180D01*
X149129344Y-89964180D02*
X149081725Y-89868942D01*
X149081725Y-89868942D02*
X149081725Y-89678466D01*
X149081725Y-89678466D02*
X149129344Y-89583228D01*
X149129344Y-89583228D02*
X149176963Y-89535609D01*
X149176963Y-89535609D02*
X149272201Y-89487990D01*
D10*
D11*
X154542534Y-89154657D02*
X154494915Y-89107038D01*
X154494915Y-89107038D02*
X154399677Y-89059419D01*
X154399677Y-89059419D02*
X154161582Y-89059419D01*
X154161582Y-89059419D02*
X154066344Y-89107038D01*
X154066344Y-89107038D02*
X154018725Y-89154657D01*
X154018725Y-89154657D02*
X153971106Y-89249895D01*
X153971106Y-89249895D02*
X153971106Y-89345133D01*
X153971106Y-89345133D02*
X154018725Y-89487990D01*
X154018725Y-89487990D02*
X154590153Y-90059419D01*
X154590153Y-90059419D02*
X153971106Y-90059419D01*
X153494915Y-90059419D02*
X153304439Y-90059419D01*
X153304439Y-90059419D02*
X153209201Y-90011800D01*
X153209201Y-90011800D02*
X153161582Y-89964180D01*
X153161582Y-89964180D02*
X153066344Y-89821323D01*
X153066344Y-89821323D02*
X153018725Y-89630847D01*
X153018725Y-89630847D02*
X153018725Y-89249895D01*
X153018725Y-89249895D02*
X153066344Y-89154657D01*
X153066344Y-89154657D02*
X153113963Y-89107038D01*
X153113963Y-89107038D02*
X153209201Y-89059419D01*
X153209201Y-89059419D02*
X153399677Y-89059419D01*
X153399677Y-89059419D02*
X153494915Y-89107038D01*
X153494915Y-89107038D02*
X153542534Y-89154657D01*
X153542534Y-89154657D02*
X153590153Y-89249895D01*
X153590153Y-89249895D02*
X153590153Y-89487990D01*
X153590153Y-89487990D02*
X153542534Y-89583228D01*
X153542534Y-89583228D02*
X153494915Y-89630847D01*
X153494915Y-89630847D02*
X153399677Y-89678466D01*
X153399677Y-89678466D02*
X153209201Y-89678466D01*
X153209201Y-89678466D02*
X153113963Y-89630847D01*
X153113963Y-89630847D02*
X153066344Y-89583228D01*
X153066344Y-89583228D02*
X153018725Y-89487990D01*
D10*
D11*
X158527153Y-89059419D02*
X157908106Y-89059419D01*
X157908106Y-89059419D02*
X158241439Y-89440371D01*
X158241439Y-89440371D02*
X158098582Y-89440371D01*
X158098582Y-89440371D02*
X158003344Y-89487990D01*
X158003344Y-89487990D02*
X157955725Y-89535609D01*
X157955725Y-89535609D02*
X157908106Y-89630847D01*
X157908106Y-89630847D02*
X157908106Y-89868942D01*
X157908106Y-89868942D02*
X157955725Y-89964180D01*
X157955725Y-89964180D02*
X158003344Y-90011800D01*
X158003344Y-90011800D02*
X158098582Y-90059419D01*
X158098582Y-90059419D02*
X158384296Y-90059419D01*
X158384296Y-90059419D02*
X158479534Y-90011800D01*
X158479534Y-90011800D02*
X158527153Y-89964180D01*
X157289058Y-89059419D02*
X157193820Y-89059419D01*
X157193820Y-89059419D02*
X157098582Y-89107038D01*
X157098582Y-89107038D02*
X157050963Y-89154657D01*
X157050963Y-89154657D02*
X157003344Y-89249895D01*
X157003344Y-89249895D02*
X156955725Y-89440371D01*
X156955725Y-89440371D02*
X156955725Y-89678466D01*
X156955725Y-89678466D02*
X157003344Y-89868942D01*
X157003344Y-89868942D02*
X157050963Y-89964180D01*
X157050963Y-89964180D02*
X157098582Y-90011800D01*
X157098582Y-90011800D02*
X157193820Y-90059419D01*
X157193820Y-90059419D02*
X157289058Y-90059419D01*
X157289058Y-90059419D02*
X157384296Y-90011800D01*
X157384296Y-90011800D02*
X157431915Y-89964180D01*
X157431915Y-89964180D02*
X157479534Y-89868942D01*
X157479534Y-89868942D02*
X157527153Y-89678466D01*
X157527153Y-89678466D02*
X157527153Y-89440371D01*
X157527153Y-89440371D02*
X157479534Y-89249895D01*
X157479534Y-89249895D02*
X157431915Y-89154657D01*
X157431915Y-89154657D02*
X157384296Y-89107038D01*
X157384296Y-89107038D02*
X157289058Y-89059419D01*
D10*
D11*
X146795534Y-94488657D02*
X146747915Y-94441038D01*
X146747915Y-94441038D02*
X146652677Y-94393419D01*
X146652677Y-94393419D02*
X146414582Y-94393419D01*
X146414582Y-94393419D02*
X146319344Y-94441038D01*
X146319344Y-94441038D02*
X146271725Y-94488657D01*
X146271725Y-94488657D02*
X146224106Y-94583895D01*
X146224106Y-94583895D02*
X146224106Y-94679133D01*
X146224106Y-94679133D02*
X146271725Y-94821990D01*
X146271725Y-94821990D02*
X146843153Y-95393419D01*
X146843153Y-95393419D02*
X146224106Y-95393419D01*
X145843153Y-94488657D02*
X145795534Y-94441038D01*
X145795534Y-94441038D02*
X145700296Y-94393419D01*
X145700296Y-94393419D02*
X145462201Y-94393419D01*
X145462201Y-94393419D02*
X145366963Y-94441038D01*
X145366963Y-94441038D02*
X145319344Y-94488657D01*
X145319344Y-94488657D02*
X145271725Y-94583895D01*
X145271725Y-94583895D02*
X145271725Y-94679133D01*
X145271725Y-94679133D02*
X145319344Y-94821990D01*
X145319344Y-94821990D02*
X145890772Y-95393419D01*
X145890772Y-95393419D02*
X145271725Y-95393419D01*
D10*
D11*
X142858534Y-94361657D02*
X142810915Y-94314038D01*
X142810915Y-94314038D02*
X142715677Y-94266419D01*
X142715677Y-94266419D02*
X142477582Y-94266419D01*
X142477582Y-94266419D02*
X142382344Y-94314038D01*
X142382344Y-94314038D02*
X142334725Y-94361657D01*
X142334725Y-94361657D02*
X142287106Y-94456895D01*
X142287106Y-94456895D02*
X142287106Y-94552133D01*
X142287106Y-94552133D02*
X142334725Y-94694990D01*
X142334725Y-94694990D02*
X142906153Y-95266419D01*
X142906153Y-95266419D02*
X142287106Y-95266419D01*
X141334725Y-95266419D02*
X141906153Y-95266419D01*
X141620439Y-95266419D02*
X141620439Y-94266419D01*
X141620439Y-94266419D02*
X141715677Y-94409276D01*
X141715677Y-94409276D02*
X141810915Y-94504514D01*
X141810915Y-94504514D02*
X141906153Y-94552133D01*
D10*
D11*
X150732534Y-94361657D02*
X150684915Y-94314038D01*
X150684915Y-94314038D02*
X150589677Y-94266419D01*
X150589677Y-94266419D02*
X150351582Y-94266419D01*
X150351582Y-94266419D02*
X150256344Y-94314038D01*
X150256344Y-94314038D02*
X150208725Y-94361657D01*
X150208725Y-94361657D02*
X150161106Y-94456895D01*
X150161106Y-94456895D02*
X150161106Y-94552133D01*
X150161106Y-94552133D02*
X150208725Y-94694990D01*
X150208725Y-94694990D02*
X150780153Y-95266419D01*
X150780153Y-95266419D02*
X150161106Y-95266419D01*
X149827772Y-94266419D02*
X149208725Y-94266419D01*
X149208725Y-94266419D02*
X149542058Y-94647371D01*
X149542058Y-94647371D02*
X149399201Y-94647371D01*
X149399201Y-94647371D02*
X149303963Y-94694990D01*
X149303963Y-94694990D02*
X149256344Y-94742609D01*
X149256344Y-94742609D02*
X149208725Y-94837847D01*
X149208725Y-94837847D02*
X149208725Y-95075942D01*
X149208725Y-95075942D02*
X149256344Y-95171180D01*
X149256344Y-95171180D02*
X149303963Y-95218800D01*
X149303963Y-95218800D02*
X149399201Y-95266419D01*
X149399201Y-95266419D02*
X149684915Y-95266419D01*
X149684915Y-95266419D02*
X149780153Y-95218800D01*
X149780153Y-95218800D02*
X149827772Y-95171180D01*
D10*
D11*
X154669534Y-94361657D02*
X154621915Y-94314038D01*
X154621915Y-94314038D02*
X154526677Y-94266419D01*
X154526677Y-94266419D02*
X154288582Y-94266419D01*
X154288582Y-94266419D02*
X154193344Y-94314038D01*
X154193344Y-94314038D02*
X154145725Y-94361657D01*
X154145725Y-94361657D02*
X154098106Y-94456895D01*
X154098106Y-94456895D02*
X154098106Y-94552133D01*
X154098106Y-94552133D02*
X154145725Y-94694990D01*
X154145725Y-94694990D02*
X154717153Y-95266419D01*
X154717153Y-95266419D02*
X154098106Y-95266419D01*
X153240963Y-94599752D02*
X153240963Y-95266419D01*
X153479058Y-94218800D02*
X153717153Y-94933085D01*
X153717153Y-94933085D02*
X153098106Y-94933085D01*
D10*
D11*
X158606534Y-94361657D02*
X158558915Y-94314038D01*
X158558915Y-94314038D02*
X158463677Y-94266419D01*
X158463677Y-94266419D02*
X158225582Y-94266419D01*
X158225582Y-94266419D02*
X158130344Y-94314038D01*
X158130344Y-94314038D02*
X158082725Y-94361657D01*
X158082725Y-94361657D02*
X158035106Y-94456895D01*
X158035106Y-94456895D02*
X158035106Y-94552133D01*
X158035106Y-94552133D02*
X158082725Y-94694990D01*
X158082725Y-94694990D02*
X158654153Y-95266419D01*
X158654153Y-95266419D02*
X158035106Y-95266419D01*
X157130344Y-94266419D02*
X157606534Y-94266419D01*
X157606534Y-94266419D02*
X157654153Y-94742609D01*
X157654153Y-94742609D02*
X157606534Y-94694990D01*
X157606534Y-94694990D02*
X157511296Y-94647371D01*
X157511296Y-94647371D02*
X157273201Y-94647371D01*
X157273201Y-94647371D02*
X157177963Y-94694990D01*
X157177963Y-94694990D02*
X157130344Y-94742609D01*
X157130344Y-94742609D02*
X157082725Y-94837847D01*
X157082725Y-94837847D02*
X157082725Y-95075942D01*
X157082725Y-95075942D02*
X157130344Y-95171180D01*
X157130344Y-95171180D02*
X157177963Y-95218800D01*
X157177963Y-95218800D02*
X157273201Y-95266419D01*
X157273201Y-95266419D02*
X157511296Y-95266419D01*
X157511296Y-95266419D02*
X157606534Y-95218800D01*
X157606534Y-95218800D02*
X157654153Y-95171180D01*
D10*
D11*
X158479534Y-99060657D02*
X158431915Y-99013038D01*
X158431915Y-99013038D02*
X158336677Y-98965419D01*
X158336677Y-98965419D02*
X158098582Y-98965419D01*
X158098582Y-98965419D02*
X158003344Y-99013038D01*
X158003344Y-99013038D02*
X157955725Y-99060657D01*
X157955725Y-99060657D02*
X157908106Y-99155895D01*
X157908106Y-99155895D02*
X157908106Y-99251133D01*
X157908106Y-99251133D02*
X157955725Y-99393990D01*
X157955725Y-99393990D02*
X158527153Y-99965419D01*
X158527153Y-99965419D02*
X157908106Y-99965419D01*
X157289058Y-98965419D02*
X157193820Y-98965419D01*
X157193820Y-98965419D02*
X157098582Y-99013038D01*
X157098582Y-99013038D02*
X157050963Y-99060657D01*
X157050963Y-99060657D02*
X157003344Y-99155895D01*
X157003344Y-99155895D02*
X156955725Y-99346371D01*
X156955725Y-99346371D02*
X156955725Y-99584466D01*
X156955725Y-99584466D02*
X157003344Y-99774942D01*
X157003344Y-99774942D02*
X157050963Y-99870180D01*
X157050963Y-99870180D02*
X157098582Y-99917800D01*
X157098582Y-99917800D02*
X157193820Y-99965419D01*
X157193820Y-99965419D02*
X157289058Y-99965419D01*
X157289058Y-99965419D02*
X157384296Y-99917800D01*
X157384296Y-99917800D02*
X157431915Y-99870180D01*
X157431915Y-99870180D02*
X157479534Y-99774942D01*
X157479534Y-99774942D02*
X157527153Y-99584466D01*
X157527153Y-99584466D02*
X157527153Y-99346371D01*
X157527153Y-99346371D02*
X157479534Y-99155895D01*
X157479534Y-99155895D02*
X157431915Y-99060657D01*
X157431915Y-99060657D02*
X157384296Y-99013038D01*
X157384296Y-99013038D02*
X157289058Y-98965419D01*
D10*
D11*
X146097106Y-100092419D02*
X146668534Y-100092419D01*
X146382820Y-100092419D02*
X146382820Y-99092419D01*
X146382820Y-99092419D02*
X146478058Y-99235276D01*
X146478058Y-99235276D02*
X146573296Y-99330514D01*
X146573296Y-99330514D02*
X146668534Y-99378133D01*
X145763772Y-99092419D02*
X145097106Y-99092419D01*
X145097106Y-99092419D02*
X145525677Y-100092419D01*
D10*
D11*
X142160106Y-99965419D02*
X142731534Y-99965419D01*
X142445820Y-99965419D02*
X142445820Y-98965419D01*
X142445820Y-98965419D02*
X142541058Y-99108276D01*
X142541058Y-99108276D02*
X142636296Y-99203514D01*
X142636296Y-99203514D02*
X142731534Y-99251133D01*
X141302963Y-98965419D02*
X141493439Y-98965419D01*
X141493439Y-98965419D02*
X141588677Y-99013038D01*
X141588677Y-99013038D02*
X141636296Y-99060657D01*
X141636296Y-99060657D02*
X141731534Y-99203514D01*
X141731534Y-99203514D02*
X141779153Y-99393990D01*
X141779153Y-99393990D02*
X141779153Y-99774942D01*
X141779153Y-99774942D02*
X141731534Y-99870180D01*
X141731534Y-99870180D02*
X141683915Y-99917800D01*
X141683915Y-99917800D02*
X141588677Y-99965419D01*
X141588677Y-99965419D02*
X141398201Y-99965419D01*
X141398201Y-99965419D02*
X141302963Y-99917800D01*
X141302963Y-99917800D02*
X141255344Y-99870180D01*
X141255344Y-99870180D02*
X141207725Y-99774942D01*
X141207725Y-99774942D02*
X141207725Y-99536847D01*
X141207725Y-99536847D02*
X141255344Y-99441609D01*
X141255344Y-99441609D02*
X141302963Y-99393990D01*
X141302963Y-99393990D02*
X141398201Y-99346371D01*
X141398201Y-99346371D02*
X141588677Y-99346371D01*
X141588677Y-99346371D02*
X141683915Y-99393990D01*
X141683915Y-99393990D02*
X141731534Y-99441609D01*
X141731534Y-99441609D02*
X141779153Y-99536847D01*
D10*
D11*
X150034106Y-99965419D02*
X150605534Y-99965419D01*
X150319820Y-99965419D02*
X150319820Y-98965419D01*
X150319820Y-98965419D02*
X150415058Y-99108276D01*
X150415058Y-99108276D02*
X150510296Y-99203514D01*
X150510296Y-99203514D02*
X150605534Y-99251133D01*
X149462677Y-99393990D02*
X149557915Y-99346371D01*
X149557915Y-99346371D02*
X149605534Y-99298752D01*
X149605534Y-99298752D02*
X149653153Y-99203514D01*
X149653153Y-99203514D02*
X149653153Y-99155895D01*
X149653153Y-99155895D02*
X149605534Y-99060657D01*
X149605534Y-99060657D02*
X149557915Y-99013038D01*
X149557915Y-99013038D02*
X149462677Y-98965419D01*
X149462677Y-98965419D02*
X149272201Y-98965419D01*
X149272201Y-98965419D02*
X149176963Y-99013038D01*
X149176963Y-99013038D02*
X149129344Y-99060657D01*
X149129344Y-99060657D02*
X149081725Y-99155895D01*
X149081725Y-99155895D02*
X149081725Y-99203514D01*
X149081725Y-99203514D02*
X149129344Y-99298752D01*
X149129344Y-99298752D02*
X149176963Y-99346371D01*
X149176963Y-99346371D02*
X149272201Y-99393990D01*
X149272201Y-99393990D02*
X149462677Y-99393990D01*
X149462677Y-99393990D02*
X149557915Y-99441609D01*
X149557915Y-99441609D02*
X149605534Y-99489228D01*
X149605534Y-99489228D02*
X149653153Y-99584466D01*
X149653153Y-99584466D02*
X149653153Y-99774942D01*
X149653153Y-99774942D02*
X149605534Y-99870180D01*
X149605534Y-99870180D02*
X149557915Y-99917800D01*
X149557915Y-99917800D02*
X149462677Y-99965419D01*
X149462677Y-99965419D02*
X149272201Y-99965419D01*
X149272201Y-99965419D02*
X149176963Y-99917800D01*
X149176963Y-99917800D02*
X149129344Y-99870180D01*
X149129344Y-99870180D02*
X149081725Y-99774942D01*
X149081725Y-99774942D02*
X149081725Y-99584466D01*
X149081725Y-99584466D02*
X149129344Y-99489228D01*
X149129344Y-99489228D02*
X149176963Y-99441609D01*
X149176963Y-99441609D02*
X149272201Y-99393990D01*
D10*
D11*
X153971106Y-99965419D02*
X154542534Y-99965419D01*
X154256820Y-99965419D02*
X154256820Y-98965419D01*
X154256820Y-98965419D02*
X154352058Y-99108276D01*
X154352058Y-99108276D02*
X154447296Y-99203514D01*
X154447296Y-99203514D02*
X154542534Y-99251133D01*
X153494915Y-99965419D02*
X153304439Y-99965419D01*
X153304439Y-99965419D02*
X153209201Y-99917800D01*
X153209201Y-99917800D02*
X153161582Y-99870180D01*
X153161582Y-99870180D02*
X153066344Y-99727323D01*
X153066344Y-99727323D02*
X153018725Y-99536847D01*
X153018725Y-99536847D02*
X153018725Y-99155895D01*
X153018725Y-99155895D02*
X153066344Y-99060657D01*
X153066344Y-99060657D02*
X153113963Y-99013038D01*
X153113963Y-99013038D02*
X153209201Y-98965419D01*
X153209201Y-98965419D02*
X153399677Y-98965419D01*
X153399677Y-98965419D02*
X153494915Y-99013038D01*
X153494915Y-99013038D02*
X153542534Y-99060657D01*
X153542534Y-99060657D02*
X153590153Y-99155895D01*
X153590153Y-99155895D02*
X153590153Y-99393990D01*
X153590153Y-99393990D02*
X153542534Y-99489228D01*
X153542534Y-99489228D02*
X153494915Y-99536847D01*
X153494915Y-99536847D02*
X153399677Y-99584466D01*
X153399677Y-99584466D02*
X153209201Y-99584466D01*
X153209201Y-99584466D02*
X153113963Y-99536847D01*
X153113963Y-99536847D02*
X153066344Y-99489228D01*
X153066344Y-99489228D02*
X153018725Y-99393990D01*
D10*
D11*
X146097106Y-110506419D02*
X146668534Y-110506419D01*
X146382820Y-110506419D02*
X146382820Y-109506419D01*
X146382820Y-109506419D02*
X146478058Y-109649276D01*
X146478058Y-109649276D02*
X146573296Y-109744514D01*
X146573296Y-109744514D02*
X146668534Y-109792133D01*
X145239963Y-109839752D02*
X145239963Y-110506419D01*
X145478058Y-109458800D02*
X145716153Y-110173085D01*
X145716153Y-110173085D02*
X145097106Y-110173085D01*
D10*
D11*
X142160106Y-110379419D02*
X142731534Y-110379419D01*
X142445820Y-110379419D02*
X142445820Y-109379419D01*
X142445820Y-109379419D02*
X142541058Y-109522276D01*
X142541058Y-109522276D02*
X142636296Y-109617514D01*
X142636296Y-109617514D02*
X142731534Y-109665133D01*
X141255344Y-109379419D02*
X141731534Y-109379419D01*
X141731534Y-109379419D02*
X141779153Y-109855609D01*
X141779153Y-109855609D02*
X141731534Y-109807990D01*
X141731534Y-109807990D02*
X141636296Y-109760371D01*
X141636296Y-109760371D02*
X141398201Y-109760371D01*
X141398201Y-109760371D02*
X141302963Y-109807990D01*
X141302963Y-109807990D02*
X141255344Y-109855609D01*
X141255344Y-109855609D02*
X141207725Y-109950847D01*
X141207725Y-109950847D02*
X141207725Y-110188942D01*
X141207725Y-110188942D02*
X141255344Y-110284180D01*
X141255344Y-110284180D02*
X141302963Y-110331800D01*
X141302963Y-110331800D02*
X141398201Y-110379419D01*
X141398201Y-110379419D02*
X141636296Y-110379419D01*
X141636296Y-110379419D02*
X141731534Y-110331800D01*
X141731534Y-110331800D02*
X141779153Y-110284180D01*
D10*
D11*
X150034106Y-110379419D02*
X150605534Y-110379419D01*
X150319820Y-110379419D02*
X150319820Y-109379419D01*
X150319820Y-109379419D02*
X150415058Y-109522276D01*
X150415058Y-109522276D02*
X150510296Y-109617514D01*
X150510296Y-109617514D02*
X150605534Y-109665133D01*
X149700772Y-109379419D02*
X149081725Y-109379419D01*
X149081725Y-109379419D02*
X149415058Y-109760371D01*
X149415058Y-109760371D02*
X149272201Y-109760371D01*
X149272201Y-109760371D02*
X149176963Y-109807990D01*
X149176963Y-109807990D02*
X149129344Y-109855609D01*
X149129344Y-109855609D02*
X149081725Y-109950847D01*
X149081725Y-109950847D02*
X149081725Y-110188942D01*
X149081725Y-110188942D02*
X149129344Y-110284180D01*
X149129344Y-110284180D02*
X149176963Y-110331800D01*
X149176963Y-110331800D02*
X149272201Y-110379419D01*
X149272201Y-110379419D02*
X149557915Y-110379419D01*
X149557915Y-110379419D02*
X149653153Y-110331800D01*
X149653153Y-110331800D02*
X149700772Y-110284180D01*
D10*
D11*
X153971106Y-110379419D02*
X154542534Y-110379419D01*
X154256820Y-110379419D02*
X154256820Y-109379419D01*
X154256820Y-109379419D02*
X154352058Y-109522276D01*
X154352058Y-109522276D02*
X154447296Y-109617514D01*
X154447296Y-109617514D02*
X154542534Y-109665133D01*
X153590153Y-109474657D02*
X153542534Y-109427038D01*
X153542534Y-109427038D02*
X153447296Y-109379419D01*
X153447296Y-109379419D02*
X153209201Y-109379419D01*
X153209201Y-109379419D02*
X153113963Y-109427038D01*
X153113963Y-109427038D02*
X153066344Y-109474657D01*
X153066344Y-109474657D02*
X153018725Y-109569895D01*
X153018725Y-109569895D02*
X153018725Y-109665133D01*
X153018725Y-109665133D02*
X153066344Y-109807990D01*
X153066344Y-109807990D02*
X153637772Y-110379419D01*
X153637772Y-110379419D02*
X153018725Y-110379419D01*
D10*
D11*
X157908106Y-110379419D02*
X158479534Y-110379419D01*
X158193820Y-110379419D02*
X158193820Y-109379419D01*
X158193820Y-109379419D02*
X158289058Y-109522276D01*
X158289058Y-109522276D02*
X158384296Y-109617514D01*
X158384296Y-109617514D02*
X158479534Y-109665133D01*
X156955725Y-110379419D02*
X157527153Y-110379419D01*
X157241439Y-110379419D02*
X157241439Y-109379419D01*
X157241439Y-109379419D02*
X157336677Y-109522276D01*
X157336677Y-109522276D02*
X157431915Y-109617514D01*
X157431915Y-109617514D02*
X157527153Y-109665133D01*
D10*
D11*
X146192296Y-115586419D02*
X146001820Y-115586419D01*
X146001820Y-115586419D02*
X145906582Y-115538800D01*
X145906582Y-115538800D02*
X145858963Y-115491180D01*
X145858963Y-115491180D02*
X145763725Y-115348323D01*
X145763725Y-115348323D02*
X145716106Y-115157847D01*
X145716106Y-115157847D02*
X145716106Y-114776895D01*
X145716106Y-114776895D02*
X145763725Y-114681657D01*
X145763725Y-114681657D02*
X145811344Y-114634038D01*
X145811344Y-114634038D02*
X145906582Y-114586419D01*
X145906582Y-114586419D02*
X146097058Y-114586419D01*
X146097058Y-114586419D02*
X146192296Y-114634038D01*
X146192296Y-114634038D02*
X146239915Y-114681657D01*
X146239915Y-114681657D02*
X146287534Y-114776895D01*
X146287534Y-114776895D02*
X146287534Y-115014990D01*
X146287534Y-115014990D02*
X146239915Y-115110228D01*
X146239915Y-115110228D02*
X146192296Y-115157847D01*
X146192296Y-115157847D02*
X146097058Y-115205466D01*
X146097058Y-115205466D02*
X145906582Y-115205466D01*
X145906582Y-115205466D02*
X145811344Y-115157847D01*
X145811344Y-115157847D02*
X145763725Y-115110228D01*
X145763725Y-115110228D02*
X145716106Y-115014990D01*
D10*
D11*
X142160106Y-115332419D02*
X142731534Y-115332419D01*
X142445820Y-115332419D02*
X142445820Y-114332419D01*
X142445820Y-114332419D02*
X142541058Y-114475276D01*
X142541058Y-114475276D02*
X142636296Y-114570514D01*
X142636296Y-114570514D02*
X142731534Y-114618133D01*
X141541058Y-114332419D02*
X141445820Y-114332419D01*
X141445820Y-114332419D02*
X141350582Y-114380038D01*
X141350582Y-114380038D02*
X141302963Y-114427657D01*
X141302963Y-114427657D02*
X141255344Y-114522895D01*
X141255344Y-114522895D02*
X141207725Y-114713371D01*
X141207725Y-114713371D02*
X141207725Y-114951466D01*
X141207725Y-114951466D02*
X141255344Y-115141942D01*
X141255344Y-115141942D02*
X141302963Y-115237180D01*
X141302963Y-115237180D02*
X141350582Y-115284800D01*
X141350582Y-115284800D02*
X141445820Y-115332419D01*
X141445820Y-115332419D02*
X141541058Y-115332419D01*
X141541058Y-115332419D02*
X141636296Y-115284800D01*
X141636296Y-115284800D02*
X141683915Y-115237180D01*
X141683915Y-115237180D02*
X141731534Y-115141942D01*
X141731534Y-115141942D02*
X141779153Y-114951466D01*
X141779153Y-114951466D02*
X141779153Y-114713371D01*
X141779153Y-114713371D02*
X141731534Y-114522895D01*
X141731534Y-114522895D02*
X141683915Y-114427657D01*
X141683915Y-114427657D02*
X141636296Y-114380038D01*
X141636296Y-114380038D02*
X141541058Y-114332419D01*
D10*
D11*
X150034058Y-114887990D02*
X150129296Y-114840371D01*
X150129296Y-114840371D02*
X150176915Y-114792752D01*
X150176915Y-114792752D02*
X150224534Y-114697514D01*
X150224534Y-114697514D02*
X150224534Y-114649895D01*
X150224534Y-114649895D02*
X150176915Y-114554657D01*
X150176915Y-114554657D02*
X150129296Y-114507038D01*
X150129296Y-114507038D02*
X150034058Y-114459419D01*
X150034058Y-114459419D02*
X149843582Y-114459419D01*
X149843582Y-114459419D02*
X149748344Y-114507038D01*
X149748344Y-114507038D02*
X149700725Y-114554657D01*
X149700725Y-114554657D02*
X149653106Y-114649895D01*
X149653106Y-114649895D02*
X149653106Y-114697514D01*
X149653106Y-114697514D02*
X149700725Y-114792752D01*
X149700725Y-114792752D02*
X149748344Y-114840371D01*
X149748344Y-114840371D02*
X149843582Y-114887990D01*
X149843582Y-114887990D02*
X150034058Y-114887990D01*
X150034058Y-114887990D02*
X150129296Y-114935609D01*
X150129296Y-114935609D02*
X150176915Y-114983228D01*
X150176915Y-114983228D02*
X150224534Y-115078466D01*
X150224534Y-115078466D02*
X150224534Y-115268942D01*
X150224534Y-115268942D02*
X150176915Y-115364180D01*
X150176915Y-115364180D02*
X150129296Y-115411800D01*
X150129296Y-115411800D02*
X150034058Y-115459419D01*
X150034058Y-115459419D02*
X149843582Y-115459419D01*
X149843582Y-115459419D02*
X149748344Y-115411800D01*
X149748344Y-115411800D02*
X149700725Y-115364180D01*
X149700725Y-115364180D02*
X149653106Y-115268942D01*
X149653106Y-115268942D02*
X149653106Y-115078466D01*
X149653106Y-115078466D02*
X149700725Y-114983228D01*
X149700725Y-114983228D02*
X149748344Y-114935609D01*
X149748344Y-114935609D02*
X149843582Y-114887990D01*
D10*
D11*
X154209153Y-114459419D02*
X153542487Y-114459419D01*
X153542487Y-114459419D02*
X153971058Y-115459419D01*
D10*
D11*
X157622344Y-114459419D02*
X157812820Y-114459419D01*
X157812820Y-114459419D02*
X157908058Y-114507038D01*
X157908058Y-114507038D02*
X157955677Y-114554657D01*
X157955677Y-114554657D02*
X158050915Y-114697514D01*
X158050915Y-114697514D02*
X158098534Y-114887990D01*
X158098534Y-114887990D02*
X158098534Y-115268942D01*
X158098534Y-115268942D02*
X158050915Y-115364180D01*
X158050915Y-115364180D02*
X158003296Y-115411800D01*
X158003296Y-115411800D02*
X157908058Y-115459419D01*
X157908058Y-115459419D02*
X157717582Y-115459419D01*
X157717582Y-115459419D02*
X157622344Y-115411800D01*
X157622344Y-115411800D02*
X157574725Y-115364180D01*
X157574725Y-115364180D02*
X157527106Y-115268942D01*
X157527106Y-115268942D02*
X157527106Y-115030847D01*
X157527106Y-115030847D02*
X157574725Y-114935609D01*
X157574725Y-114935609D02*
X157622344Y-114887990D01*
X157622344Y-114887990D02*
X157717582Y-114840371D01*
X157717582Y-114840371D02*
X157908058Y-114840371D01*
X157908058Y-114840371D02*
X158003296Y-114887990D01*
X158003296Y-114887990D02*
X158050915Y-114935609D01*
X158050915Y-114935609D02*
X158098534Y-115030847D01*
D10*
D11*
X14920306Y254580D02*
X15491734Y254580D01*
X15206020Y254580D02*
X15206020Y1254580D01*
X15206020Y1254580D02*
X15301258Y1111723D01*
X15301258Y1111723D02*
X15396496Y1016485D01*
X15396496Y1016485D02*
X15491734Y968866D01*
D10*
D11*
X11554734Y1159342D02*
X11507115Y1206961D01*
X11507115Y1206961D02*
X11411877Y1254580D01*
X11411877Y1254580D02*
X11173782Y1254580D01*
X11173782Y1254580D02*
X11078544Y1206961D01*
X11078544Y1206961D02*
X11030925Y1159342D01*
X11030925Y1159342D02*
X10983306Y1064104D01*
X10983306Y1064104D02*
X10983306Y968866D01*
X10983306Y968866D02*
X11030925Y826009D01*
X11030925Y826009D02*
X11602353Y254580D01*
X11602353Y254580D02*
X10983306Y254580D01*
D10*
D11*
X7665353Y1254580D02*
X7046306Y1254580D01*
X7046306Y1254580D02*
X7379639Y873628D01*
X7379639Y873628D02*
X7236782Y873628D01*
X7236782Y873628D02*
X7141544Y826009D01*
X7141544Y826009D02*
X7093925Y778390D01*
X7093925Y778390D02*
X7046306Y683152D01*
X7046306Y683152D02*
X7046306Y445057D01*
X7046306Y445057D02*
X7093925Y349819D01*
X7093925Y349819D02*
X7141544Y302200D01*
X7141544Y302200D02*
X7236782Y254580D01*
X7236782Y254580D02*
X7522496Y254580D01*
X7522496Y254580D02*
X7617734Y302200D01*
X7617734Y302200D02*
X7665353Y349819D01*
D10*
D11*
X3204544Y794247D02*
X3204544Y127580D01*
X3442639Y1175200D02*
X3680734Y460914D01*
X3680734Y460914D02*
X3061687Y460914D01*
D10*
D11*
X-780074Y1254580D02*
X-303884Y1254580D01*
X-303884Y1254580D02*
X-256265Y778390D01*
X-256265Y778390D02*
X-303884Y826009D01*
X-303884Y826009D02*
X-399122Y873628D01*
X-399122Y873628D02*
X-637217Y873628D01*
X-637217Y873628D02*
X-732455Y826009D01*
X-732455Y826009D02*
X-780074Y778390D01*
X-780074Y778390D02*
X-827693Y683152D01*
X-827693Y683152D02*
X-827693Y445057D01*
X-827693Y445057D02*
X-780074Y349819D01*
X-780074Y349819D02*
X-732455Y302200D01*
X-732455Y302200D02*
X-637217Y254580D01*
X-637217Y254580D02*
X-399122Y254580D01*
X-399122Y254580D02*
X-303884Y302200D01*
X-303884Y302200D02*
X-256265Y349819D01*
D12*
%TO.P,CS1,GND*%
%TO.N,Net-(C1-Pad1)*%
X146037800Y-104792000D03*
D13*
%TO.P,CS1,30*%
%TO.N,Net-(C1-Pad31)*%
X157775300Y-92092000D03*
%TO.P,CS1,29*%
%TO.N,Net-(C1-Pad30)*%
X153862800Y-92092000D03*
%TO.P,CS1,28*%
%TO.N,Net-(C1-Pad29)*%
X149950300Y-92092000D03*
%TO.P,CS1,27*%
%TO.N,Net-(C1-Pad28)*%
X146037800Y-92092000D03*
%TO.P,CS1,26*%
%TO.N,Net-(C1-Pad27)*%
X142125300Y-92092000D03*
%TO.P,CS1,25*%
%TO.N,Net-(C1-Pad26)*%
X157775300Y-97172000D03*
%TO.P,CS1,24*%
%TO.N,Net-(C1-Pad25)*%
X153862800Y-97172000D03*
%TO.P,CS1,23*%
%TO.N,Net-(C1-Pad24)*%
X149950300Y-97172000D03*
%TO.P,CS1,22*%
%TO.N,Net-(C1-Pad23)*%
X146037800Y-97172000D03*
%TO.P,CS1,21*%
%TO.N,Net-(C1-Pad22)*%
X142125300Y-97172000D03*
%TO.P,CS1,20*%
%TO.N,Net-(C1-Pad21)*%
X157775300Y-102252000D03*
%TO.P,CS1,19*%
%TO.N,Net-(C1-Pad20)*%
X153862800Y-102252000D03*
%TO.P,CS1,18*%
%TO.N,Net-(C1-Pad19)*%
X149950300Y-102252000D03*
%TO.P,CS1,17*%
%TO.N,Net-(C1-Pad18)*%
X146037800Y-102252000D03*
%TO.P,CS1,16*%
%TO.N,Net-(C1-Pad17)*%
X142125300Y-102252000D03*
%TO.P,CS1,15*%
%TO.N,Net-(C1-Pad16)*%
X142125300Y-107332000D03*
%TO.P,CS1,14*%
%TO.N,Net-(C1-Pad15)*%
X146037800Y-107332000D03*
%TO.P,CS1,13*%
%TO.N,Net-(C1-Pad14)*%
X149950300Y-107332000D03*
%TO.P,CS1,12*%
%TO.N,Net-(C1-Pad13)*%
X153862800Y-107332000D03*
%TO.P,CS1,11*%
%TO.N,Net-(C1-Pad12)*%
X157775300Y-107332000D03*
%TO.P,CS1,10*%
%TO.N,Net-(C1-Pad11)*%
X142125300Y-112412000D03*
%TO.P,CS1,9*%
%TO.N,Net-(C1-Pad10)*%
X146037800Y-112412000D03*
%TO.P,CS1,8*%
%TO.N,Net-(C1-Pad9)*%
X149950300Y-112412000D03*
%TO.P,CS1,7*%
%TO.N,Net-(C1-Pad8)*%
X153862800Y-112412000D03*
%TO.P,CS1,6*%
%TO.N,Net-(C1-Pad7)*%
X157775300Y-112412000D03*
%TO.P,CS1,5*%
%TO.N,Net-(C1-Pad6)*%
X142125300Y-117492000D03*
%TO.P,CS1,4*%
%TO.N,Net-(C1-Pad5)*%
X146037800Y-117492000D03*
%TO.P,CS1,3*%
%TO.N,Net-(C1-Pad4)*%
X149950300Y-117492000D03*
%TO.P,CS1,2*%
%TO.N,Net-(C1-Pad3)*%
X153862800Y-117492000D03*
%TO.P,CS1,1*%
%TO.N,Net-(C1-Pad2)*%
X157775300Y-117492000D03*
%TD*%
D14*
%TO.N,Net-(C1-Pad1)*%
X102093800Y-113384300D03*
X101712800Y-97426000D03*
%TO.N,Net-(C1-Pad21)*%
X157719800Y-100855000D03*
%TO.N,Net-(C1-Pad20)*%
X153909800Y-100855000D03*
%TO.N,Net-(C1-Pad19)*%
X149972800Y-100728000D03*
%TO.N,Net-(C1-Pad18)*%
X146035800Y-100855000D03*
%TO.N,Net-(C1-Pad17)*%
X142098800Y-100935700D03*
%TO.N,Net-(C1-Pad16)*%
X141971800Y-108602000D03*
%TO.N,Net-(C1-Pad15)*%
X145908800Y-108602000D03*
%TO.N,Net-(C1-Pad14)*%
X149972800Y-108602000D03*
%TO.N,Net-(C1-Pad13)*%
X153782800Y-108602000D03*
%TO.N,Net-(C1-Pad12)*%
X157719800Y-108602000D03*
%TO.N,Net-(C1-Pad22)*%
X140955800Y-96410000D03*
%TO.N,Net-(C1-Pad23)*%
X146035800Y-95935900D03*
%TO.N,Net-(C1-Pad24)*%
X149845800Y-95902000D03*
%TO.N,Net-(C1-Pad25)*%
X153782800Y-95902000D03*
%TO.N,Net-(C1-Pad26)*%
X157719800Y-95902000D03*
%TO.N,Net-(C1-Pad31)*%
X157846800Y-90822000D03*
%TO.N,Net-(C1-Pad30)*%
X153909800Y-90822000D03*
%TO.N,Net-(C1-Pad29)*%
X149972800Y-90822000D03*
%TO.N,Net-(C1-Pad28)*%
X146035800Y-90822000D03*
%TO.N,Net-(C1-Pad27)*%
X141082800Y-90969500D03*
%TO.N,Net-(C1-Pad11)*%
X140828800Y-113301000D03*
%TO.N,Net-(C1-Pad6)*%
X140955800Y-118554300D03*
%TO.N,Net-(C1-Pad5)*%
X146035800Y-118762000D03*
%TO.N,Net-(C1-Pad4)*%
X149972800Y-118762000D03*
%TO.N,Net-(C1-Pad3)*%
X153782800Y-118762000D03*
%TO.N,Net-(C1-Pad2)*%
X157846800Y-118762000D03*
%TO.N,Net-(C1-Pad7)*%
X157719800Y-113809000D03*
%TO.N,Net-(C1-Pad8)*%
X153909800Y-113682000D03*
%TO.N,Net-(C1-Pad9)*%
X149972800Y-113682000D03*
%TO.N,Net-(C1-Pad10)*%
X146035800Y-113682000D03*
%TD*%
D15*
%TO.N,Net-(C1-Pad30)*%
X153909800Y-90822000D02*
X153909800Y-92045000D01*
X153909800Y-92045000D02*
X153862800Y-92092000D01*
%TO.N,Net-(C1-Pad6)*%
X140955800Y-118554300D02*
X141063000Y-118554300D01*
X141063000Y-118554300D02*
X142125300Y-117492000D01*
%TO.N,Net-(C1-Pad5)*%
X146035800Y-118762000D02*
X146035800Y-117494000D01*
X146035800Y-117494000D02*
X146037800Y-117492000D01*
%TO.N,Net-(C1-Pad4)*%
X149972800Y-118762000D02*
X149972800Y-117514500D01*
X149972800Y-117514500D02*
X149950300Y-117492000D01*
%TO.N,Net-(C1-Pad3)*%
X153782800Y-118762000D02*
X153782800Y-117572000D01*
X153782800Y-117572000D02*
X153862800Y-117492000D01*
%TO.N,Net-(C1-Pad2)*%
X157846800Y-118762000D02*
X157846800Y-117563500D01*
X157846800Y-117563500D02*
X157775300Y-117492000D01*
%TO.N,Net-(C1-Pad7)*%
X157719800Y-113809000D02*
X157719800Y-112467500D01*
X157719800Y-112467500D02*
X157775300Y-112412000D01*
%TO.N,Net-(C1-Pad8)*%
X153909800Y-113682000D02*
X153909800Y-112459000D01*
X153909800Y-112459000D02*
X153862800Y-112412000D01*
%TO.N,Net-(C1-Pad9)*%
X149972800Y-113682000D02*
X149972800Y-112434500D01*
X149972800Y-112434500D02*
X149950300Y-112412000D01*
%TO.N,Net-(C1-Pad10)*%
X146035800Y-113682000D02*
X146035800Y-112414000D01*
X146035800Y-112414000D02*
X146037800Y-112412000D01*
%TO.N,Net-(C1-Pad11)*%
X140828800Y-113301000D02*
X141236300Y-113301000D01*
X141236300Y-113301000D02*
X142125300Y-112412000D01*
%TO.N,Net-(C1-Pad16)*%
X141971800Y-108602000D02*
X141971800Y-107485500D01*
X141971800Y-107485500D02*
X142125300Y-107332000D01*
%TO.N,Net-(C1-Pad15)*%
X145908800Y-108602000D02*
X145908800Y-107461000D01*
X145908800Y-107461000D02*
X146037800Y-107332000D01*
%TO.N,Net-(C1-Pad14)*%
X149972800Y-108602000D02*
X149972800Y-107354500D01*
X149972800Y-107354500D02*
X149950300Y-107332000D01*
%TO.N,Net-(C1-Pad13)*%
X153782800Y-108602000D02*
X153782800Y-107412000D01*
X153782800Y-107412000D02*
X153862800Y-107332000D01*
%TO.N,Net-(C1-Pad12)*%
X157719800Y-108602000D02*
X157719800Y-107387500D01*
X157719800Y-107387500D02*
X157775300Y-107332000D01*
%TO.N,Net-(C1-Pad21)*%
X157719800Y-100855000D02*
X157719800Y-102196500D01*
X157719800Y-102196500D02*
X157775300Y-102252000D01*
%TO.N,Net-(C1-Pad20)*%
X153909800Y-100855000D02*
X153909800Y-102205000D01*
X153909800Y-102205000D02*
X153862800Y-102252000D01*
%TO.N,Net-(C1-Pad19)*%
X149972800Y-100728000D02*
X149972800Y-102229500D01*
X149972800Y-102229500D02*
X149950300Y-102252000D01*
%TO.N,Net-(C1-Pad18)*%
X146035800Y-100855000D02*
X146035800Y-102250000D01*
X146035800Y-102250000D02*
X146037800Y-102252000D01*
%TO.N,Net-(C1-Pad17)*%
X142098800Y-102225500D02*
X142125300Y-102252000D01*
X142098800Y-100935700D02*
X142098800Y-102225500D01*
%TO.N,Net-(C1-Pad22)*%
X140955800Y-96410000D02*
X141363300Y-96410000D01*
X141363300Y-96410000D02*
X142125300Y-97172000D01*
%TO.N,Net-(C1-Pad23)*%
X146035800Y-95935900D02*
X146035800Y-97170000D01*
X146035800Y-97170000D02*
X146037800Y-97172000D01*
%TO.N,Net-(C1-Pad24)*%
X149845800Y-95902000D02*
X149845800Y-97067500D01*
X149845800Y-97067500D02*
X149950300Y-97172000D01*
%TO.N,Net-(C1-Pad25)*%
X153782800Y-95902000D02*
X153782800Y-97092000D01*
X153782800Y-97092000D02*
X153862800Y-97172000D01*
%TO.N,Net-(C1-Pad26)*%
X157719800Y-95902000D02*
X157719800Y-97116500D01*
X157719800Y-97116500D02*
X157775300Y-97172000D01*
%TO.N,Net-(C1-Pad31)*%
X157846800Y-90822000D02*
X157846800Y-92020500D01*
X157846800Y-92020500D02*
X157775300Y-92092000D01*
%TO.N,Net-(C1-Pad29)*%
X149972800Y-90822000D02*
X149972800Y-92069500D01*
X149972800Y-92069500D02*
X149950300Y-92092000D01*
%TO.N,Net-(C1-Pad28)*%
X146035800Y-90822000D02*
X146035800Y-92090000D01*
X146035800Y-92090000D02*
X146037800Y-92092000D01*
%TO.N,Net-(C1-Pad27)*%
X141082800Y-90969500D02*
X141082800Y-91049500D01*
X141082800Y-91049500D02*
X142125300Y-92092000D01*
%TO.N,Net-(C1-Pad1)*%
X101966800Y-97426000D02*
X102220800Y-97172000D01*
X101712800Y-97426000D02*
X101966800Y-97426000D01*
X102518500Y-113384300D02*
X102728800Y-113174000D01*
X102093800Y-113384300D02*
X102518500Y-113384300D01*
X146037800Y-104792000D02*
X101712800Y-104792000D01*
%TD*%
%TA.AperFunction,Conductor*%
%TO.N,Net-(C1-Pad1)*%
G36*
X103103607Y-96533211D02*
G01*
X103135397Y-96567924D01*
X103139100Y-96588941D01*
X103139100Y-113755686D01*
X103121087Y-113799173D01*
X103077600Y-113817186D01*
X103066599Y-113816194D01*
X100189599Y-113293103D01*
X100150035Y-113267601D01*
X100139100Y-113232595D01*
X100139100Y-97635122D01*
X100157113Y-97591635D01*
X100179579Y-97577327D01*
X103056583Y-96531144D01*
X103103607Y-96533211D01*
G37*
%TD.AperFunction*%
%TD*%
M02*
