M48
; DRILL file {KiCad 7.0.8} date 2023 November 07, Tuesday 17:21:41
; FORMAT={-:-/ absolute / inch / decimal}
; #@! TF.CreationDate,2023-11-07T17:21:41-08:00
; #@! TF.GenerationSoftware,Kicad,Pcbnew,7.0.8
; #@! TF.FileFunction,Plated,1,2,PTH
FMAT,2
INCH
; #@! TA.AperFunction,Plated,PTH,ViaDrill
T1C0.0157
%
G90
G05
T1
X4.0044Y-3.8357
X4.0194Y-4.4639
X5.5444Y-4.4607
X5.5494Y-3.7957
X5.5494Y-4.6675
X5.5544Y-3.5815
X5.5894Y-4.2757
X5.5944Y-3.9738
X5.7444Y-4.2757
X5.7494Y-3.5757
X5.7494Y-3.777
X5.7494Y-3.9707
X5.7494Y-4.4757
X5.7494Y-4.6757
X5.8994Y-3.7757
X5.9044Y-3.5757
X5.9044Y-3.9657
X5.9044Y-4.2757
X5.9044Y-4.4757
X5.9044Y-4.6757
X6.0544Y-3.7757
X6.0544Y-4.2757
X6.0544Y-4.6757
X6.0594Y-3.5757
X6.0594Y-3.9707
X6.0594Y-4.4757
X6.2094Y-3.7757
X6.2094Y-3.9707
X6.2094Y-4.2757
X6.2094Y-4.4807
X6.2144Y-3.5757
X6.2144Y-4.6757
T0
M30
