%TF.GenerationSoftware,KiCad,Pcbnew,7.0.8*%
%TF.CreationDate,2023-11-07T17:21:44-08:00*%
%TF.ProjectId,trill-flex-slider,7472696c-6c2d-4666-9c65-782d736c6964,C1*%
%TF.SameCoordinates,Original*%
%TF.FileFunction,Drillmap*%
%TF.FilePolarity,Positive*%
%FSLAX45Y45*%
G04 Gerber Fmt 4.5, Leading zero omitted, Abs format (unit mm)*
G04 Created by KiCad (PCBNEW 7.0.8) date 2023-11-07 17:21:44*
%MOMM*%
%LPD*%
G01*
G04 APERTURE LIST*
%ADD10C,0.050000*%
%ADD11C,0.200000*%
%ADD12C,0.040000*%
G04 APERTURE END LIST*
D10*
X10339010Y-11425860D02*
X10336380Y-11495200D01*
X10958670Y-8828200D02*
G75*
G03*
X10339010Y-9447860I0J-619660D01*
G01*
X10339010Y-11425860D02*
X10339010Y-11417960D01*
X10023960Y-11369200D02*
X10339010Y-11417960D01*
X10336380Y-11495200D02*
G75*
G03*
X10956040Y-12114860I619660J0D01*
G01*
X16632940Y-9447860D02*
X16632900Y-11495200D01*
X16013280Y-12114860D02*
G75*
G03*
X16632940Y-11495200I0J619660D01*
G01*
X16632940Y-9447860D02*
G75*
G03*
X16013280Y-8828200I-619660J0D01*
G01*
X16013280Y-12114860D02*
X10956040Y-12114860D01*
X10026500Y-9718200D02*
X8131660Y-9718200D01*
X10026500Y-9718200D02*
X10339010Y-9617960D01*
X10339010Y-9617960D02*
X10339010Y-9447860D01*
X10023960Y-11369200D02*
X8131660Y-11368200D01*
X10958670Y-8828200D02*
X16013280Y-8828200D01*
D11*
D12*
X10151280Y-9722600D02*
X10191280Y-9762600D01*
X10191280Y-9722600D02*
X10151280Y-9762600D01*
X10189380Y-11318430D02*
X10229380Y-11358430D01*
X10229380Y-11318430D02*
X10189380Y-11358430D01*
X14062880Y-11310100D02*
X14102880Y-11350100D01*
X14102880Y-11310100D02*
X14062880Y-11350100D01*
X14075580Y-9621000D02*
X14115580Y-9661000D01*
X14115580Y-9621000D02*
X14075580Y-9661000D01*
X14075580Y-11835430D02*
X14115580Y-11875430D01*
X14115580Y-11835430D02*
X14075580Y-11875430D01*
X14088280Y-9076950D02*
X14128280Y-9116950D01*
X14128280Y-9076950D02*
X14088280Y-9116950D01*
X14177180Y-10840200D02*
X14217180Y-10880200D01*
X14217180Y-10840200D02*
X14177180Y-10880200D01*
X14189880Y-10073570D02*
X14229880Y-10113570D01*
X14229880Y-10073570D02*
X14189880Y-10113570D01*
X14570880Y-10840200D02*
X14610880Y-10880200D01*
X14610880Y-10840200D02*
X14570880Y-10880200D01*
X14583580Y-9062200D02*
X14623580Y-9102200D01*
X14623580Y-9062200D02*
X14583580Y-9102200D01*
X14583580Y-9573590D02*
X14623580Y-9613590D01*
X14623580Y-9573590D02*
X14583580Y-9613590D01*
X14583580Y-10065500D02*
X14623580Y-10105500D01*
X14623580Y-10065500D02*
X14583580Y-10105500D01*
X14583580Y-11348200D02*
X14623580Y-11388200D01*
X14623580Y-11348200D02*
X14583580Y-11388200D01*
X14583580Y-11856200D02*
X14623580Y-11896200D01*
X14623580Y-11856200D02*
X14583580Y-11896200D01*
X14964580Y-9570200D02*
X15004580Y-9610200D01*
X15004580Y-9570200D02*
X14964580Y-9610200D01*
X14977280Y-9062200D02*
X15017280Y-9102200D01*
X15017280Y-9062200D02*
X14977280Y-9102200D01*
X14977280Y-10052800D02*
X15017280Y-10092800D01*
X15017280Y-10052800D02*
X14977280Y-10092800D01*
X14977280Y-10840200D02*
X15017280Y-10880200D01*
X15017280Y-10840200D02*
X14977280Y-10880200D01*
X14977280Y-11348200D02*
X15017280Y-11388200D01*
X15017280Y-11348200D02*
X14977280Y-11388200D01*
X14977280Y-11856200D02*
X15017280Y-11896200D01*
X15017280Y-11856200D02*
X14977280Y-11896200D01*
X15358280Y-9570200D02*
X15398280Y-9610200D01*
X15398280Y-9570200D02*
X15358280Y-9610200D01*
X15358280Y-10840200D02*
X15398280Y-10880200D01*
X15398280Y-10840200D02*
X15358280Y-10880200D01*
X15358280Y-11856200D02*
X15398280Y-11896200D01*
X15398280Y-11856200D02*
X15358280Y-11896200D01*
X15370980Y-9062200D02*
X15410980Y-9102200D01*
X15410980Y-9062200D02*
X15370980Y-9102200D01*
X15370980Y-10065500D02*
X15410980Y-10105500D01*
X15410980Y-10065500D02*
X15370980Y-10105500D01*
X15370980Y-11348200D02*
X15410980Y-11388200D01*
X15410980Y-11348200D02*
X15370980Y-11388200D01*
X15751980Y-9570200D02*
X15791980Y-9610200D01*
X15791980Y-9570200D02*
X15751980Y-9610200D01*
X15751980Y-10065500D02*
X15791980Y-10105500D01*
X15791980Y-10065500D02*
X15751980Y-10105500D01*
X15751980Y-10840200D02*
X15791980Y-10880200D01*
X15791980Y-10840200D02*
X15751980Y-10880200D01*
X15751980Y-11360900D02*
X15791980Y-11400900D01*
X15791980Y-11360900D02*
X15751980Y-11400900D01*
X15764680Y-9062200D02*
X15804680Y-9102200D01*
X15804680Y-9062200D02*
X15764680Y-9102200D01*
X15764680Y-11856200D02*
X15804680Y-11896200D01*
X15804680Y-11856200D02*
X15764680Y-11896200D01*
D11*
X7368437Y-12428844D02*
X7368437Y-12228844D01*
X7368437Y-12228844D02*
X7416056Y-12228844D01*
X7416056Y-12228844D02*
X7444627Y-12238368D01*
X7444627Y-12238368D02*
X7463675Y-12257415D01*
X7463675Y-12257415D02*
X7473199Y-12276463D01*
X7473199Y-12276463D02*
X7482722Y-12314558D01*
X7482722Y-12314558D02*
X7482722Y-12343129D01*
X7482722Y-12343129D02*
X7473199Y-12381225D01*
X7473199Y-12381225D02*
X7463675Y-12400272D01*
X7463675Y-12400272D02*
X7444627Y-12419320D01*
X7444627Y-12419320D02*
X7416056Y-12428844D01*
X7416056Y-12428844D02*
X7368437Y-12428844D01*
X7568437Y-12428844D02*
X7568437Y-12295510D01*
X7568437Y-12333606D02*
X7577961Y-12314558D01*
X7577961Y-12314558D02*
X7587484Y-12305034D01*
X7587484Y-12305034D02*
X7606532Y-12295510D01*
X7606532Y-12295510D02*
X7625580Y-12295510D01*
X7692246Y-12428844D02*
X7692246Y-12295510D01*
X7692246Y-12228844D02*
X7682722Y-12238368D01*
X7682722Y-12238368D02*
X7692246Y-12247891D01*
X7692246Y-12247891D02*
X7701770Y-12238368D01*
X7701770Y-12238368D02*
X7692246Y-12228844D01*
X7692246Y-12228844D02*
X7692246Y-12247891D01*
X7816056Y-12428844D02*
X7797008Y-12419320D01*
X7797008Y-12419320D02*
X7787484Y-12400272D01*
X7787484Y-12400272D02*
X7787484Y-12228844D01*
X7920818Y-12428844D02*
X7901770Y-12419320D01*
X7901770Y-12419320D02*
X7892246Y-12400272D01*
X7892246Y-12400272D02*
X7892246Y-12228844D01*
X8149389Y-12428844D02*
X8149389Y-12228844D01*
X8149389Y-12228844D02*
X8216056Y-12371701D01*
X8216056Y-12371701D02*
X8282722Y-12228844D01*
X8282722Y-12228844D02*
X8282722Y-12428844D01*
X8463675Y-12428844D02*
X8463675Y-12324082D01*
X8463675Y-12324082D02*
X8454151Y-12305034D01*
X8454151Y-12305034D02*
X8435104Y-12295510D01*
X8435104Y-12295510D02*
X8397008Y-12295510D01*
X8397008Y-12295510D02*
X8377961Y-12305034D01*
X8463675Y-12419320D02*
X8444627Y-12428844D01*
X8444627Y-12428844D02*
X8397008Y-12428844D01*
X8397008Y-12428844D02*
X8377961Y-12419320D01*
X8377961Y-12419320D02*
X8368437Y-12400272D01*
X8368437Y-12400272D02*
X8368437Y-12381225D01*
X8368437Y-12381225D02*
X8377961Y-12362177D01*
X8377961Y-12362177D02*
X8397008Y-12352653D01*
X8397008Y-12352653D02*
X8444627Y-12352653D01*
X8444627Y-12352653D02*
X8463675Y-12343129D01*
X8558913Y-12295510D02*
X8558913Y-12495510D01*
X8558913Y-12305034D02*
X8577961Y-12295510D01*
X8577961Y-12295510D02*
X8616056Y-12295510D01*
X8616056Y-12295510D02*
X8635104Y-12305034D01*
X8635104Y-12305034D02*
X8644627Y-12314558D01*
X8644627Y-12314558D02*
X8654151Y-12333606D01*
X8654151Y-12333606D02*
X8654151Y-12390748D01*
X8654151Y-12390748D02*
X8644627Y-12409796D01*
X8644627Y-12409796D02*
X8635104Y-12419320D01*
X8635104Y-12419320D02*
X8616056Y-12428844D01*
X8616056Y-12428844D02*
X8577961Y-12428844D01*
X8577961Y-12428844D02*
X8558913Y-12419320D01*
X8739865Y-12409796D02*
X8749389Y-12419320D01*
X8749389Y-12419320D02*
X8739865Y-12428844D01*
X8739865Y-12428844D02*
X8730342Y-12419320D01*
X8730342Y-12419320D02*
X8739865Y-12409796D01*
X8739865Y-12409796D02*
X8739865Y-12428844D01*
X8739865Y-12305034D02*
X8749389Y-12314558D01*
X8749389Y-12314558D02*
X8739865Y-12324082D01*
X8739865Y-12324082D02*
X8730342Y-12314558D01*
X8730342Y-12314558D02*
X8739865Y-12305034D01*
X8739865Y-12305034D02*
X8739865Y-12324082D01*
D12*
X7067660Y-12737360D02*
X7107660Y-12777360D01*
X7107660Y-12737360D02*
X7067660Y-12777360D01*
D11*
X7406532Y-12648844D02*
X7425580Y-12648844D01*
X7425580Y-12648844D02*
X7444627Y-12658368D01*
X7444627Y-12658368D02*
X7454151Y-12667891D01*
X7454151Y-12667891D02*
X7463675Y-12686939D01*
X7463675Y-12686939D02*
X7473199Y-12725034D01*
X7473199Y-12725034D02*
X7473199Y-12772653D01*
X7473199Y-12772653D02*
X7463675Y-12810748D01*
X7463675Y-12810748D02*
X7454151Y-12829796D01*
X7454151Y-12829796D02*
X7444627Y-12839320D01*
X7444627Y-12839320D02*
X7425580Y-12848844D01*
X7425580Y-12848844D02*
X7406532Y-12848844D01*
X7406532Y-12848844D02*
X7387484Y-12839320D01*
X7387484Y-12839320D02*
X7377961Y-12829796D01*
X7377961Y-12829796D02*
X7368437Y-12810748D01*
X7368437Y-12810748D02*
X7358913Y-12772653D01*
X7358913Y-12772653D02*
X7358913Y-12725034D01*
X7358913Y-12725034D02*
X7368437Y-12686939D01*
X7368437Y-12686939D02*
X7377961Y-12667891D01*
X7377961Y-12667891D02*
X7387484Y-12658368D01*
X7387484Y-12658368D02*
X7406532Y-12648844D01*
X7558913Y-12829796D02*
X7568437Y-12839320D01*
X7568437Y-12839320D02*
X7558913Y-12848844D01*
X7558913Y-12848844D02*
X7549389Y-12839320D01*
X7549389Y-12839320D02*
X7558913Y-12829796D01*
X7558913Y-12829796D02*
X7558913Y-12848844D01*
X7739865Y-12715510D02*
X7739865Y-12848844D01*
X7692246Y-12639320D02*
X7644627Y-12782177D01*
X7644627Y-12782177D02*
X7768437Y-12782177D01*
X7882722Y-12648844D02*
X7901770Y-12648844D01*
X7901770Y-12648844D02*
X7920818Y-12658368D01*
X7920818Y-12658368D02*
X7930342Y-12667891D01*
X7930342Y-12667891D02*
X7939865Y-12686939D01*
X7939865Y-12686939D02*
X7949389Y-12725034D01*
X7949389Y-12725034D02*
X7949389Y-12772653D01*
X7949389Y-12772653D02*
X7939865Y-12810748D01*
X7939865Y-12810748D02*
X7930342Y-12829796D01*
X7930342Y-12829796D02*
X7920818Y-12839320D01*
X7920818Y-12839320D02*
X7901770Y-12848844D01*
X7901770Y-12848844D02*
X7882722Y-12848844D01*
X7882722Y-12848844D02*
X7863675Y-12839320D01*
X7863675Y-12839320D02*
X7854151Y-12829796D01*
X7854151Y-12829796D02*
X7844627Y-12810748D01*
X7844627Y-12810748D02*
X7835103Y-12772653D01*
X7835103Y-12772653D02*
X7835103Y-12725034D01*
X7835103Y-12725034D02*
X7844627Y-12686939D01*
X7844627Y-12686939D02*
X7854151Y-12667891D01*
X7854151Y-12667891D02*
X7863675Y-12658368D01*
X7863675Y-12658368D02*
X7882722Y-12648844D01*
X8073199Y-12648844D02*
X8092246Y-12648844D01*
X8092246Y-12648844D02*
X8111294Y-12658368D01*
X8111294Y-12658368D02*
X8120818Y-12667891D01*
X8120818Y-12667891D02*
X8130342Y-12686939D01*
X8130342Y-12686939D02*
X8139865Y-12725034D01*
X8139865Y-12725034D02*
X8139865Y-12772653D01*
X8139865Y-12772653D02*
X8130342Y-12810748D01*
X8130342Y-12810748D02*
X8120818Y-12829796D01*
X8120818Y-12829796D02*
X8111294Y-12839320D01*
X8111294Y-12839320D02*
X8092246Y-12848844D01*
X8092246Y-12848844D02*
X8073199Y-12848844D01*
X8073199Y-12848844D02*
X8054151Y-12839320D01*
X8054151Y-12839320D02*
X8044627Y-12829796D01*
X8044627Y-12829796D02*
X8035103Y-12810748D01*
X8035103Y-12810748D02*
X8025580Y-12772653D01*
X8025580Y-12772653D02*
X8025580Y-12725034D01*
X8025580Y-12725034D02*
X8035103Y-12686939D01*
X8035103Y-12686939D02*
X8044627Y-12667891D01*
X8044627Y-12667891D02*
X8054151Y-12658368D01*
X8054151Y-12658368D02*
X8073199Y-12648844D01*
X8225580Y-12848844D02*
X8225580Y-12715510D01*
X8225580Y-12734558D02*
X8235103Y-12725034D01*
X8235103Y-12725034D02*
X8254151Y-12715510D01*
X8254151Y-12715510D02*
X8282723Y-12715510D01*
X8282723Y-12715510D02*
X8301770Y-12725034D01*
X8301770Y-12725034D02*
X8311294Y-12744082D01*
X8311294Y-12744082D02*
X8311294Y-12848844D01*
X8311294Y-12744082D02*
X8320818Y-12725034D01*
X8320818Y-12725034D02*
X8339865Y-12715510D01*
X8339865Y-12715510D02*
X8368437Y-12715510D01*
X8368437Y-12715510D02*
X8387484Y-12725034D01*
X8387484Y-12725034D02*
X8397008Y-12744082D01*
X8397008Y-12744082D02*
X8397008Y-12848844D01*
X8492246Y-12848844D02*
X8492246Y-12715510D01*
X8492246Y-12734558D02*
X8501770Y-12725034D01*
X8501770Y-12725034D02*
X8520818Y-12715510D01*
X8520818Y-12715510D02*
X8549389Y-12715510D01*
X8549389Y-12715510D02*
X8568437Y-12725034D01*
X8568437Y-12725034D02*
X8577961Y-12744082D01*
X8577961Y-12744082D02*
X8577961Y-12848844D01*
X8577961Y-12744082D02*
X8587485Y-12725034D01*
X8587485Y-12725034D02*
X8606532Y-12715510D01*
X8606532Y-12715510D02*
X8635104Y-12715510D01*
X8635104Y-12715510D02*
X8654151Y-12725034D01*
X8654151Y-12725034D02*
X8663675Y-12744082D01*
X8663675Y-12744082D02*
X8663675Y-12848844D01*
X9054151Y-12639320D02*
X8882723Y-12896463D01*
X9311294Y-12648844D02*
X9330342Y-12648844D01*
X9330342Y-12648844D02*
X9349389Y-12658368D01*
X9349389Y-12658368D02*
X9358913Y-12667891D01*
X9358913Y-12667891D02*
X9368437Y-12686939D01*
X9368437Y-12686939D02*
X9377961Y-12725034D01*
X9377961Y-12725034D02*
X9377961Y-12772653D01*
X9377961Y-12772653D02*
X9368437Y-12810748D01*
X9368437Y-12810748D02*
X9358913Y-12829796D01*
X9358913Y-12829796D02*
X9349389Y-12839320D01*
X9349389Y-12839320D02*
X9330342Y-12848844D01*
X9330342Y-12848844D02*
X9311294Y-12848844D01*
X9311294Y-12848844D02*
X9292247Y-12839320D01*
X9292247Y-12839320D02*
X9282723Y-12829796D01*
X9282723Y-12829796D02*
X9273199Y-12810748D01*
X9273199Y-12810748D02*
X9263675Y-12772653D01*
X9263675Y-12772653D02*
X9263675Y-12725034D01*
X9263675Y-12725034D02*
X9273199Y-12686939D01*
X9273199Y-12686939D02*
X9282723Y-12667891D01*
X9282723Y-12667891D02*
X9292247Y-12658368D01*
X9292247Y-12658368D02*
X9311294Y-12648844D01*
X9463675Y-12829796D02*
X9473199Y-12839320D01*
X9473199Y-12839320D02*
X9463675Y-12848844D01*
X9463675Y-12848844D02*
X9454151Y-12839320D01*
X9454151Y-12839320D02*
X9463675Y-12829796D01*
X9463675Y-12829796D02*
X9463675Y-12848844D01*
X9597008Y-12648844D02*
X9616056Y-12648844D01*
X9616056Y-12648844D02*
X9635104Y-12658368D01*
X9635104Y-12658368D02*
X9644628Y-12667891D01*
X9644628Y-12667891D02*
X9654151Y-12686939D01*
X9654151Y-12686939D02*
X9663675Y-12725034D01*
X9663675Y-12725034D02*
X9663675Y-12772653D01*
X9663675Y-12772653D02*
X9654151Y-12810748D01*
X9654151Y-12810748D02*
X9644628Y-12829796D01*
X9644628Y-12829796D02*
X9635104Y-12839320D01*
X9635104Y-12839320D02*
X9616056Y-12848844D01*
X9616056Y-12848844D02*
X9597008Y-12848844D01*
X9597008Y-12848844D02*
X9577961Y-12839320D01*
X9577961Y-12839320D02*
X9568437Y-12829796D01*
X9568437Y-12829796D02*
X9558913Y-12810748D01*
X9558913Y-12810748D02*
X9549389Y-12772653D01*
X9549389Y-12772653D02*
X9549389Y-12725034D01*
X9549389Y-12725034D02*
X9558913Y-12686939D01*
X9558913Y-12686939D02*
X9568437Y-12667891D01*
X9568437Y-12667891D02*
X9577961Y-12658368D01*
X9577961Y-12658368D02*
X9597008Y-12648844D01*
X9854151Y-12848844D02*
X9739866Y-12848844D01*
X9797008Y-12848844D02*
X9797008Y-12648844D01*
X9797008Y-12648844D02*
X9777961Y-12677415D01*
X9777961Y-12677415D02*
X9758913Y-12696463D01*
X9758913Y-12696463D02*
X9739866Y-12705987D01*
X10035104Y-12648844D02*
X9939866Y-12648844D01*
X9939866Y-12648844D02*
X9930342Y-12744082D01*
X9930342Y-12744082D02*
X9939866Y-12734558D01*
X9939866Y-12734558D02*
X9958913Y-12725034D01*
X9958913Y-12725034D02*
X10006532Y-12725034D01*
X10006532Y-12725034D02*
X10025580Y-12734558D01*
X10025580Y-12734558D02*
X10035104Y-12744082D01*
X10035104Y-12744082D02*
X10044628Y-12763129D01*
X10044628Y-12763129D02*
X10044628Y-12810748D01*
X10044628Y-12810748D02*
X10035104Y-12829796D01*
X10035104Y-12829796D02*
X10025580Y-12839320D01*
X10025580Y-12839320D02*
X10006532Y-12848844D01*
X10006532Y-12848844D02*
X9958913Y-12848844D01*
X9958913Y-12848844D02*
X9939866Y-12839320D01*
X9939866Y-12839320D02*
X9930342Y-12829796D01*
X10111294Y-12648844D02*
X10244628Y-12648844D01*
X10244628Y-12648844D02*
X10158913Y-12848844D01*
X10311294Y-12648844D02*
X10311294Y-12686939D01*
X10387485Y-12648844D02*
X10387485Y-12686939D01*
X10682723Y-12925034D02*
X10673199Y-12915510D01*
X10673199Y-12915510D02*
X10654151Y-12886939D01*
X10654151Y-12886939D02*
X10644628Y-12867891D01*
X10644628Y-12867891D02*
X10635104Y-12839320D01*
X10635104Y-12839320D02*
X10625580Y-12791701D01*
X10625580Y-12791701D02*
X10625580Y-12753606D01*
X10625580Y-12753606D02*
X10635104Y-12705987D01*
X10635104Y-12705987D02*
X10644628Y-12677415D01*
X10644628Y-12677415D02*
X10654151Y-12658368D01*
X10654151Y-12658368D02*
X10673199Y-12629796D01*
X10673199Y-12629796D02*
X10682723Y-12620272D01*
X10739866Y-12648844D02*
X10863675Y-12648844D01*
X10863675Y-12648844D02*
X10797009Y-12725034D01*
X10797009Y-12725034D02*
X10825580Y-12725034D01*
X10825580Y-12725034D02*
X10844628Y-12734558D01*
X10844628Y-12734558D02*
X10854151Y-12744082D01*
X10854151Y-12744082D02*
X10863675Y-12763129D01*
X10863675Y-12763129D02*
X10863675Y-12810748D01*
X10863675Y-12810748D02*
X10854151Y-12829796D01*
X10854151Y-12829796D02*
X10844628Y-12839320D01*
X10844628Y-12839320D02*
X10825580Y-12848844D01*
X10825580Y-12848844D02*
X10768437Y-12848844D01*
X10768437Y-12848844D02*
X10749390Y-12839320D01*
X10749390Y-12839320D02*
X10739866Y-12829796D01*
X10939866Y-12667891D02*
X10949390Y-12658368D01*
X10949390Y-12658368D02*
X10968437Y-12648844D01*
X10968437Y-12648844D02*
X11016056Y-12648844D01*
X11016056Y-12648844D02*
X11035104Y-12658368D01*
X11035104Y-12658368D02*
X11044628Y-12667891D01*
X11044628Y-12667891D02*
X11054151Y-12686939D01*
X11054151Y-12686939D02*
X11054151Y-12705987D01*
X11054151Y-12705987D02*
X11044628Y-12734558D01*
X11044628Y-12734558D02*
X10930342Y-12848844D01*
X10930342Y-12848844D02*
X11054151Y-12848844D01*
X11292247Y-12848844D02*
X11292247Y-12648844D01*
X11377961Y-12848844D02*
X11377961Y-12744082D01*
X11377961Y-12744082D02*
X11368437Y-12725034D01*
X11368437Y-12725034D02*
X11349390Y-12715510D01*
X11349390Y-12715510D02*
X11320818Y-12715510D01*
X11320818Y-12715510D02*
X11301770Y-12725034D01*
X11301770Y-12725034D02*
X11292247Y-12734558D01*
X11501770Y-12848844D02*
X11482723Y-12839320D01*
X11482723Y-12839320D02*
X11473199Y-12829796D01*
X11473199Y-12829796D02*
X11463675Y-12810748D01*
X11463675Y-12810748D02*
X11463675Y-12753606D01*
X11463675Y-12753606D02*
X11473199Y-12734558D01*
X11473199Y-12734558D02*
X11482723Y-12725034D01*
X11482723Y-12725034D02*
X11501770Y-12715510D01*
X11501770Y-12715510D02*
X11530342Y-12715510D01*
X11530342Y-12715510D02*
X11549390Y-12725034D01*
X11549390Y-12725034D02*
X11558913Y-12734558D01*
X11558913Y-12734558D02*
X11568437Y-12753606D01*
X11568437Y-12753606D02*
X11568437Y-12810748D01*
X11568437Y-12810748D02*
X11558913Y-12829796D01*
X11558913Y-12829796D02*
X11549390Y-12839320D01*
X11549390Y-12839320D02*
X11530342Y-12848844D01*
X11530342Y-12848844D02*
X11501770Y-12848844D01*
X11682723Y-12848844D02*
X11663675Y-12839320D01*
X11663675Y-12839320D02*
X11654151Y-12820272D01*
X11654151Y-12820272D02*
X11654151Y-12648844D01*
X11835104Y-12839320D02*
X11816056Y-12848844D01*
X11816056Y-12848844D02*
X11777961Y-12848844D01*
X11777961Y-12848844D02*
X11758913Y-12839320D01*
X11758913Y-12839320D02*
X11749390Y-12820272D01*
X11749390Y-12820272D02*
X11749390Y-12744082D01*
X11749390Y-12744082D02*
X11758913Y-12725034D01*
X11758913Y-12725034D02*
X11777961Y-12715510D01*
X11777961Y-12715510D02*
X11816056Y-12715510D01*
X11816056Y-12715510D02*
X11835104Y-12725034D01*
X11835104Y-12725034D02*
X11844628Y-12744082D01*
X11844628Y-12744082D02*
X11844628Y-12763129D01*
X11844628Y-12763129D02*
X11749390Y-12782177D01*
X11920818Y-12839320D02*
X11939866Y-12848844D01*
X11939866Y-12848844D02*
X11977961Y-12848844D01*
X11977961Y-12848844D02*
X11997009Y-12839320D01*
X11997009Y-12839320D02*
X12006532Y-12820272D01*
X12006532Y-12820272D02*
X12006532Y-12810748D01*
X12006532Y-12810748D02*
X11997009Y-12791701D01*
X11997009Y-12791701D02*
X11977961Y-12782177D01*
X11977961Y-12782177D02*
X11949390Y-12782177D01*
X11949390Y-12782177D02*
X11930342Y-12772653D01*
X11930342Y-12772653D02*
X11920818Y-12753606D01*
X11920818Y-12753606D02*
X11920818Y-12744082D01*
X11920818Y-12744082D02*
X11930342Y-12725034D01*
X11930342Y-12725034D02*
X11949390Y-12715510D01*
X11949390Y-12715510D02*
X11977961Y-12715510D01*
X11977961Y-12715510D02*
X11997009Y-12725034D01*
X12073199Y-12925034D02*
X12082723Y-12915510D01*
X12082723Y-12915510D02*
X12101771Y-12886939D01*
X12101771Y-12886939D02*
X12111294Y-12867891D01*
X12111294Y-12867891D02*
X12120818Y-12839320D01*
X12120818Y-12839320D02*
X12130342Y-12791701D01*
X12130342Y-12791701D02*
X12130342Y-12753606D01*
X12130342Y-12753606D02*
X12120818Y-12705987D01*
X12120818Y-12705987D02*
X12111294Y-12677415D01*
X12111294Y-12677415D02*
X12101771Y-12658368D01*
X12101771Y-12658368D02*
X12082723Y-12629796D01*
X12082723Y-12629796D02*
X12073199Y-12620272D01*
M02*
