%TF.GenerationSoftware,KiCad,Pcbnew,7.0.8*%
%TF.CreationDate,2023-11-07T17:21:35-08:00*%
%TF.ProjectId,trill-flex-slider,7472696c-6c2d-4666-9c65-782d736c6964,C1*%
%TF.SameCoordinates,Original*%
%TF.FileFunction,Legend,Bot*%
%TF.FilePolarity,Positive*%
%FSLAX46Y46*%
G04 Gerber Fmt 4.6, Leading zero omitted, Abs format (unit mm)*
G04 Created by KiCad (PCBNEW 7.0.8) date 2023-11-07 17:21:35*
%MOMM*%
%LPD*%
G01*
G04 APERTURE LIST*
%ADD10C,0.070000*%
G04 APERTURE END LIST*
D10*
X81870154Y-106871428D02*
X81905868Y-106942857D01*
X81905868Y-106942857D02*
X81905868Y-107085714D01*
X81905868Y-107085714D02*
X81870154Y-107157143D01*
X81870154Y-107157143D02*
X81798725Y-107228571D01*
X81798725Y-107228571D02*
X81727297Y-107264285D01*
X81727297Y-107264285D02*
X81584440Y-107264285D01*
X81584440Y-107264285D02*
X81513011Y-107228571D01*
X81513011Y-107228571D02*
X81441582Y-107157143D01*
X81441582Y-107157143D02*
X81405868Y-107085714D01*
X81405868Y-107085714D02*
X81405868Y-106942857D01*
X81405868Y-106942857D02*
X81441582Y-106871428D01*
X82155868Y-107014285D02*
X82120154Y-107192857D01*
X82120154Y-107192857D02*
X82013011Y-107371428D01*
X82013011Y-107371428D02*
X81834440Y-107478571D01*
X81834440Y-107478571D02*
X81655868Y-107514285D01*
X81655868Y-107514285D02*
X81477297Y-107478571D01*
X81477297Y-107478571D02*
X81298725Y-107371428D01*
X81298725Y-107371428D02*
X81191582Y-107192857D01*
X81191582Y-107192857D02*
X81155868Y-107014285D01*
X81155868Y-107014285D02*
X81191582Y-106835714D01*
X81191582Y-106835714D02*
X81298725Y-106657143D01*
X81298725Y-106657143D02*
X81477297Y-106550000D01*
X81477297Y-106550000D02*
X81655868Y-106514285D01*
X81655868Y-106514285D02*
X81834440Y-106550000D01*
X81834440Y-106550000D02*
X82013011Y-106657143D01*
X82013011Y-106657143D02*
X82120154Y-106835714D01*
X82120154Y-106835714D02*
X82155868Y-107014285D01*
X81977297Y-105657142D02*
X82013011Y-105621428D01*
X82013011Y-105621428D02*
X82048725Y-105550000D01*
X82048725Y-105550000D02*
X82048725Y-105371428D01*
X82048725Y-105371428D02*
X82013011Y-105300000D01*
X82013011Y-105300000D02*
X81977297Y-105264285D01*
X81977297Y-105264285D02*
X81905868Y-105228571D01*
X81905868Y-105228571D02*
X81834440Y-105228571D01*
X81834440Y-105228571D02*
X81727297Y-105264285D01*
X81727297Y-105264285D02*
X81298725Y-105692857D01*
X81298725Y-105692857D02*
X81298725Y-105228571D01*
X82048725Y-104764285D02*
X82048725Y-104692856D01*
X82048725Y-104692856D02*
X82013011Y-104621428D01*
X82013011Y-104621428D02*
X81977297Y-104585714D01*
X81977297Y-104585714D02*
X81905868Y-104549999D01*
X81905868Y-104549999D02*
X81763011Y-104514285D01*
X81763011Y-104514285D02*
X81584440Y-104514285D01*
X81584440Y-104514285D02*
X81441582Y-104549999D01*
X81441582Y-104549999D02*
X81370154Y-104585714D01*
X81370154Y-104585714D02*
X81334440Y-104621428D01*
X81334440Y-104621428D02*
X81298725Y-104692856D01*
X81298725Y-104692856D02*
X81298725Y-104764285D01*
X81298725Y-104764285D02*
X81334440Y-104835714D01*
X81334440Y-104835714D02*
X81370154Y-104871428D01*
X81370154Y-104871428D02*
X81441582Y-104907142D01*
X81441582Y-104907142D02*
X81584440Y-104942856D01*
X81584440Y-104942856D02*
X81763011Y-104942856D01*
X81763011Y-104942856D02*
X81905868Y-104907142D01*
X81905868Y-104907142D02*
X81977297Y-104871428D01*
X81977297Y-104871428D02*
X82013011Y-104835714D01*
X82013011Y-104835714D02*
X82048725Y-104764285D01*
X81977297Y-104228570D02*
X82013011Y-104192856D01*
X82013011Y-104192856D02*
X82048725Y-104121428D01*
X82048725Y-104121428D02*
X82048725Y-103942856D01*
X82048725Y-103942856D02*
X82013011Y-103871428D01*
X82013011Y-103871428D02*
X81977297Y-103835713D01*
X81977297Y-103835713D02*
X81905868Y-103799999D01*
X81905868Y-103799999D02*
X81834440Y-103799999D01*
X81834440Y-103799999D02*
X81727297Y-103835713D01*
X81727297Y-103835713D02*
X81298725Y-104264285D01*
X81298725Y-104264285D02*
X81298725Y-103799999D01*
X82048725Y-103549999D02*
X82048725Y-103085713D01*
X82048725Y-103085713D02*
X81763011Y-103335713D01*
X81763011Y-103335713D02*
X81763011Y-103228570D01*
X81763011Y-103228570D02*
X81727297Y-103157142D01*
X81727297Y-103157142D02*
X81691582Y-103121427D01*
X81691582Y-103121427D02*
X81620154Y-103085713D01*
X81620154Y-103085713D02*
X81441582Y-103085713D01*
X81441582Y-103085713D02*
X81370154Y-103121427D01*
X81370154Y-103121427D02*
X81334440Y-103157142D01*
X81334440Y-103157142D02*
X81298725Y-103228570D01*
X81298725Y-103228570D02*
X81298725Y-103442856D01*
X81298725Y-103442856D02*
X81334440Y-103514284D01*
X81334440Y-103514284D02*
X81370154Y-103549999D01*
X80841225Y-110389284D02*
X80091225Y-110210712D01*
X80091225Y-110210712D02*
X80626940Y-110067855D01*
X80626940Y-110067855D02*
X80091225Y-109924998D01*
X80091225Y-109924998D02*
X80841225Y-109746427D01*
X80091225Y-109460712D02*
X80841225Y-109460712D01*
X80091225Y-109139284D02*
X80484082Y-109139284D01*
X80484082Y-109139284D02*
X80555511Y-109174998D01*
X80555511Y-109174998D02*
X80591225Y-109246426D01*
X80591225Y-109246426D02*
X80591225Y-109353569D01*
X80591225Y-109353569D02*
X80555511Y-109424998D01*
X80555511Y-109424998D02*
X80519797Y-109460712D01*
X80591225Y-108853570D02*
X80091225Y-108674998D01*
X80591225Y-108496427D02*
X80091225Y-108674998D01*
X80091225Y-108674998D02*
X79912654Y-108746427D01*
X79912654Y-108746427D02*
X79876940Y-108782141D01*
X79876940Y-108782141D02*
X79841225Y-108853570D01*
X80091225Y-108210712D02*
X80841225Y-108210712D01*
X80091225Y-107782141D02*
X80519797Y-108103569D01*
X80841225Y-107782141D02*
X80412654Y-108210712D01*
X80591225Y-107460712D02*
X80091225Y-107460712D01*
X80519797Y-107460712D02*
X80555511Y-107424998D01*
X80555511Y-107424998D02*
X80591225Y-107353569D01*
X80591225Y-107353569D02*
X80591225Y-107246426D01*
X80591225Y-107246426D02*
X80555511Y-107174998D01*
X80555511Y-107174998D02*
X80484082Y-107139284D01*
X80484082Y-107139284D02*
X80091225Y-107139284D01*
X80091225Y-106674998D02*
X80126940Y-106746427D01*
X80126940Y-106746427D02*
X80162654Y-106782141D01*
X80162654Y-106782141D02*
X80234082Y-106817855D01*
X80234082Y-106817855D02*
X80448368Y-106817855D01*
X80448368Y-106817855D02*
X80519797Y-106782141D01*
X80519797Y-106782141D02*
X80555511Y-106746427D01*
X80555511Y-106746427D02*
X80591225Y-106674998D01*
X80591225Y-106674998D02*
X80591225Y-106567855D01*
X80591225Y-106567855D02*
X80555511Y-106496427D01*
X80555511Y-106496427D02*
X80519797Y-106460713D01*
X80519797Y-106460713D02*
X80448368Y-106424998D01*
X80448368Y-106424998D02*
X80234082Y-106424998D01*
X80234082Y-106424998D02*
X80162654Y-106460713D01*
X80162654Y-106460713D02*
X80126940Y-106496427D01*
X80126940Y-106496427D02*
X80091225Y-106567855D01*
X80091225Y-106567855D02*
X80091225Y-106674998D01*
X80591225Y-106210713D02*
X80591225Y-105924999D01*
X80841225Y-106103570D02*
X80198368Y-106103570D01*
X80198368Y-106103570D02*
X80126940Y-106067856D01*
X80126940Y-106067856D02*
X80091225Y-105996427D01*
X80091225Y-105996427D02*
X80091225Y-105924999D01*
X80091225Y-105317856D02*
X80091225Y-105674999D01*
X80091225Y-105674999D02*
X80841225Y-105674999D01*
X80091225Y-104746428D02*
X80484082Y-104746428D01*
X80484082Y-104746428D02*
X80555511Y-104782142D01*
X80555511Y-104782142D02*
X80591225Y-104853570D01*
X80591225Y-104853570D02*
X80591225Y-104996428D01*
X80591225Y-104996428D02*
X80555511Y-105067856D01*
X80126940Y-104746428D02*
X80091225Y-104817856D01*
X80091225Y-104817856D02*
X80091225Y-104996428D01*
X80091225Y-104996428D02*
X80126940Y-105067856D01*
X80126940Y-105067856D02*
X80198368Y-105103570D01*
X80198368Y-105103570D02*
X80269797Y-105103570D01*
X80269797Y-105103570D02*
X80341225Y-105067856D01*
X80341225Y-105067856D02*
X80376940Y-104996428D01*
X80376940Y-104996428D02*
X80376940Y-104817856D01*
X80376940Y-104817856D02*
X80412654Y-104746428D01*
X80091225Y-104389285D02*
X80841225Y-104389285D01*
X80555511Y-104389285D02*
X80591225Y-104317857D01*
X80591225Y-104317857D02*
X80591225Y-104174999D01*
X80591225Y-104174999D02*
X80555511Y-104103571D01*
X80555511Y-104103571D02*
X80519797Y-104067857D01*
X80519797Y-104067857D02*
X80448368Y-104032142D01*
X80448368Y-104032142D02*
X80234082Y-104032142D01*
X80234082Y-104032142D02*
X80162654Y-104067857D01*
X80162654Y-104067857D02*
X80126940Y-104103571D01*
X80126940Y-104103571D02*
X80091225Y-104174999D01*
X80091225Y-104174999D02*
X80091225Y-104317857D01*
X80091225Y-104317857D02*
X80126940Y-104389285D01*
X80126940Y-103746428D02*
X80091225Y-103675000D01*
X80091225Y-103675000D02*
X80091225Y-103532143D01*
X80091225Y-103532143D02*
X80126940Y-103460714D01*
X80126940Y-103460714D02*
X80198368Y-103425000D01*
X80198368Y-103425000D02*
X80234082Y-103425000D01*
X80234082Y-103425000D02*
X80305511Y-103460714D01*
X80305511Y-103460714D02*
X80341225Y-103532143D01*
X80341225Y-103532143D02*
X80341225Y-103639286D01*
X80341225Y-103639286D02*
X80376940Y-103710714D01*
X80376940Y-103710714D02*
X80448368Y-103746428D01*
X80448368Y-103746428D02*
X80484082Y-103746428D01*
X80484082Y-103746428D02*
X80555511Y-103710714D01*
X80555511Y-103710714D02*
X80591225Y-103639286D01*
X80591225Y-103639286D02*
X80591225Y-103532143D01*
X80591225Y-103532143D02*
X80555511Y-103460714D01*
X80091225Y-102532142D02*
X80841225Y-102532142D01*
X80841225Y-102532142D02*
X80091225Y-102103571D01*
X80091225Y-102103571D02*
X80841225Y-102103571D01*
X80091225Y-101639285D02*
X80126940Y-101710714D01*
X80126940Y-101710714D02*
X80162654Y-101746428D01*
X80162654Y-101746428D02*
X80234082Y-101782142D01*
X80234082Y-101782142D02*
X80448368Y-101782142D01*
X80448368Y-101782142D02*
X80519797Y-101746428D01*
X80519797Y-101746428D02*
X80555511Y-101710714D01*
X80555511Y-101710714D02*
X80591225Y-101639285D01*
X80591225Y-101639285D02*
X80591225Y-101532142D01*
X80591225Y-101532142D02*
X80555511Y-101460714D01*
X80555511Y-101460714D02*
X80519797Y-101425000D01*
X80519797Y-101425000D02*
X80448368Y-101389285D01*
X80448368Y-101389285D02*
X80234082Y-101389285D01*
X80234082Y-101389285D02*
X80162654Y-101425000D01*
X80162654Y-101425000D02*
X80126940Y-101460714D01*
X80126940Y-101460714D02*
X80091225Y-101532142D01*
X80091225Y-101532142D02*
X80091225Y-101639285D01*
X80591225Y-101139286D02*
X80091225Y-100996429D01*
X80091225Y-100996429D02*
X80448368Y-100853571D01*
X80448368Y-100853571D02*
X80091225Y-100710714D01*
X80091225Y-100710714D02*
X80591225Y-100567857D01*
X80162654Y-100282143D02*
X80126940Y-100246429D01*
X80126940Y-100246429D02*
X80091225Y-100282143D01*
X80091225Y-100282143D02*
X80126940Y-100317857D01*
X80126940Y-100317857D02*
X80162654Y-100282143D01*
X80162654Y-100282143D02*
X80091225Y-100282143D01*
X80376940Y-100282143D02*
X80805511Y-100317857D01*
X80805511Y-100317857D02*
X80841225Y-100282143D01*
X80841225Y-100282143D02*
X80805511Y-100246429D01*
X80805511Y-100246429D02*
X80376940Y-100282143D01*
X80376940Y-100282143D02*
X80841225Y-100282143D01*
M02*
