%TF.GenerationSoftware,KiCad,Pcbnew,7.0.8*%
%TF.CreationDate,2023-11-07T17:21:44-08:00*%
%TF.ProjectId,trill-flex-slider,7472696c-6c2d-4666-9c65-782d736c6964,C1*%
%TF.SameCoordinates,Original*%
%TF.FileFunction,Drillmap*%
%TF.FilePolarity,Positive*%
%FSLAX45Y45*%
G04 Gerber Fmt 4.5, Leading zero omitted, Abs format (unit mm)*
G04 Created by KiCad (PCBNEW 7.0.8) date 2023-11-07 17:21:44*
%MOMM*%
%LPD*%
G01*
G04 APERTURE LIST*
%ADD10C,0.050000*%
%ADD11C,0.200000*%
G04 APERTURE END LIST*
D10*
X10339010Y-11425860D02*
X10336380Y-11495200D01*
X10958670Y-8828200D02*
G75*
G03*
X10339010Y-9447860I0J-619660D01*
G01*
X10339010Y-11425860D02*
X10339010Y-11417960D01*
X10023960Y-11369200D02*
X10339010Y-11417960D01*
X10336380Y-11495200D02*
G75*
G03*
X10956040Y-12114860I619660J0D01*
G01*
X16632940Y-9447860D02*
X16632900Y-11495200D01*
X16013280Y-12114860D02*
G75*
G03*
X16632940Y-11495200I0J619660D01*
G01*
X16632940Y-9447860D02*
G75*
G03*
X16013280Y-8828200I-619660J0D01*
G01*
X16013280Y-12114860D02*
X10956040Y-12114860D01*
X10026500Y-9718200D02*
X8131660Y-9718200D01*
X10026500Y-9718200D02*
X10339010Y-9617960D01*
X10339010Y-9617960D02*
X10339010Y-9447860D01*
X10023960Y-11369200D02*
X8131660Y-11368200D01*
X10958670Y-8828200D02*
X16013280Y-8828200D01*
D11*
X7368437Y-12428844D02*
X7368437Y-12228844D01*
X7368437Y-12228844D02*
X7416056Y-12228844D01*
X7416056Y-12228844D02*
X7444627Y-12238368D01*
X7444627Y-12238368D02*
X7463675Y-12257415D01*
X7463675Y-12257415D02*
X7473199Y-12276463D01*
X7473199Y-12276463D02*
X7482722Y-12314558D01*
X7482722Y-12314558D02*
X7482722Y-12343129D01*
X7482722Y-12343129D02*
X7473199Y-12381225D01*
X7473199Y-12381225D02*
X7463675Y-12400272D01*
X7463675Y-12400272D02*
X7444627Y-12419320D01*
X7444627Y-12419320D02*
X7416056Y-12428844D01*
X7416056Y-12428844D02*
X7368437Y-12428844D01*
X7568437Y-12428844D02*
X7568437Y-12295510D01*
X7568437Y-12333606D02*
X7577961Y-12314558D01*
X7577961Y-12314558D02*
X7587484Y-12305034D01*
X7587484Y-12305034D02*
X7606532Y-12295510D01*
X7606532Y-12295510D02*
X7625580Y-12295510D01*
X7692246Y-12428844D02*
X7692246Y-12295510D01*
X7692246Y-12228844D02*
X7682722Y-12238368D01*
X7682722Y-12238368D02*
X7692246Y-12247891D01*
X7692246Y-12247891D02*
X7701770Y-12238368D01*
X7701770Y-12238368D02*
X7692246Y-12228844D01*
X7692246Y-12228844D02*
X7692246Y-12247891D01*
X7816056Y-12428844D02*
X7797008Y-12419320D01*
X7797008Y-12419320D02*
X7787484Y-12400272D01*
X7787484Y-12400272D02*
X7787484Y-12228844D01*
X7920818Y-12428844D02*
X7901770Y-12419320D01*
X7901770Y-12419320D02*
X7892246Y-12400272D01*
X7892246Y-12400272D02*
X7892246Y-12228844D01*
X8149389Y-12428844D02*
X8149389Y-12228844D01*
X8149389Y-12228844D02*
X8216056Y-12371701D01*
X8216056Y-12371701D02*
X8282722Y-12228844D01*
X8282722Y-12228844D02*
X8282722Y-12428844D01*
X8463675Y-12428844D02*
X8463675Y-12324082D01*
X8463675Y-12324082D02*
X8454151Y-12305034D01*
X8454151Y-12305034D02*
X8435104Y-12295510D01*
X8435104Y-12295510D02*
X8397008Y-12295510D01*
X8397008Y-12295510D02*
X8377961Y-12305034D01*
X8463675Y-12419320D02*
X8444627Y-12428844D01*
X8444627Y-12428844D02*
X8397008Y-12428844D01*
X8397008Y-12428844D02*
X8377961Y-12419320D01*
X8377961Y-12419320D02*
X8368437Y-12400272D01*
X8368437Y-12400272D02*
X8368437Y-12381225D01*
X8368437Y-12381225D02*
X8377961Y-12362177D01*
X8377961Y-12362177D02*
X8397008Y-12352653D01*
X8397008Y-12352653D02*
X8444627Y-12352653D01*
X8444627Y-12352653D02*
X8463675Y-12343129D01*
X8558913Y-12295510D02*
X8558913Y-12495510D01*
X8558913Y-12305034D02*
X8577961Y-12295510D01*
X8577961Y-12295510D02*
X8616056Y-12295510D01*
X8616056Y-12295510D02*
X8635104Y-12305034D01*
X8635104Y-12305034D02*
X8644627Y-12314558D01*
X8644627Y-12314558D02*
X8654151Y-12333606D01*
X8654151Y-12333606D02*
X8654151Y-12390748D01*
X8654151Y-12390748D02*
X8644627Y-12409796D01*
X8644627Y-12409796D02*
X8635104Y-12419320D01*
X8635104Y-12419320D02*
X8616056Y-12428844D01*
X8616056Y-12428844D02*
X8577961Y-12428844D01*
X8577961Y-12428844D02*
X8558913Y-12419320D01*
X8739865Y-12409796D02*
X8749389Y-12419320D01*
X8749389Y-12419320D02*
X8739865Y-12428844D01*
X8739865Y-12428844D02*
X8730342Y-12419320D01*
X8730342Y-12419320D02*
X8739865Y-12409796D01*
X8739865Y-12409796D02*
X8739865Y-12428844D01*
X8739865Y-12305034D02*
X8749389Y-12314558D01*
X8749389Y-12314558D02*
X8739865Y-12324082D01*
X8739865Y-12324082D02*
X8730342Y-12314558D01*
X8730342Y-12314558D02*
X8739865Y-12305034D01*
X8739865Y-12305034D02*
X8739865Y-12324082D01*
M02*
